<?xml version="1.0" encoding="UTF-8"?>
<svg version="1.1" xmlns="http://www.w3.org/2000/svg" width="127" height="103">
<path d="M0 0 C41.91 0 83.82 0 127 0 C127 33.66 127 67.32 127 102 C85.09 102 43.18 102 0 102 C0 68.34 0 34.68 0 0 Z " fill="#373732" transform="translate(0,1)"/>
<path d="M0 0 C41.91 0 83.82 0 127 0 C127 32.01 127 64.02 127 97 C123.37 97 119.74 97 116 97 C116 97.99 116 98.98 116 100 C115.34 100 114.68 100 114 100 C114 99.01 114 98.02 114 97 C105.42 97 96.84 97 88 97 C88 93.7 88 90.4 88 87 C91.465 86.505 91.465 86.505 95 86 C94.76603516 85.06027344 94.76603516 85.06027344 94.52734375 84.1015625 C94.33269531 83.28429687 94.13804688 82.46703125 93.9375 81.625 C93.74027344 80.81289062 93.54304688 80.00078125 93.33984375 79.1640625 C93 77 93 77 94 75 C93.6808377 72.77375407 93.6808377 72.77375407 93.0625 70.375 C92.86785156 69.55773437 92.67320313 68.74046875 92.47265625 67.8984375 C92.23869141 66.95871094 92.23869141 66.95871094 92 66 C92.639375 65.87625 93.27875 65.7525 93.9375 65.625 C94.618125 65.41875 95.29875 65.2125 96 65 C96.495 64.01 96.495 64.01 97 63 C95.02 63 93.04 63 91 63 C86.97277993 48.9893352 88.8935392 32.4147924 89 18 C91.8945865 16.33703168 93.78523201 15.77160849 97.109375 16.0234375 C97.86347656 16.075 98.61757812 16.1265625 99.39453125 16.1796875 C100.17183594 16.24414062 100.94914062 16.30859375 101.75 16.375 C102.54277344 16.43171875 103.33554688 16.4884375 104.15234375 16.546875 C106.10231735 16.68783695 108.05128671 16.8425712 110 17 C110.33919096 20.66614909 110.67028081 24.3329879 111 28 C111.09539062 29.02996094 111.19078125 30.05992188 111.2890625 31.12109375 C111.68092578 35.51556055 112.0610981 39.87083688 112.02734375 44.28515625 C111.9906997 49.26351273 112.45315276 54.16448218 112.87890625 59.12109375 C112.93884766 60.54615234 112.93884766 60.54615234 113 62 C112 63 112 63 109.71484375 63.09765625 C108.79832031 63.08605469 107.88179688 63.07445312 106.9375 63.0625 C106.01839844 63.05347656 105.09929687 63.04445312 104.15234375 63.03515625 C103.44207031 63.02355469 102.73179688 63.01195312 102 63 C102.10828125 64.09054688 102.10828125 64.09054688 102.21875 65.203125 C102.89252975 72.50240567 103.08725924 79.67022405 103 87 C107.29 87 111.58 87 116 87 C115.835 85.39125 115.67 83.7825 115.5 82.125 C115.00347264 76.73313242 114.89436866 71.41067217 115 66 C115.33 66 115.66 66 116 66 C116.15584456 56.01404331 115.66688975 46.14273173 115 36.1875 C114.85547607 34.00339418 114.71224707 31.8192281 114.57202148 29.63484192 C114.44546138 27.66677199 114.31466948 25.69897551 114.18359375 23.73120117 C113.99059026 19.80876465 113.96957408 15.92630144 114 12 C112.89769043 12.0714624 111.79538086 12.1429248 110.65966797 12.21655273 C91.4347006 13.32947464 72.18946187 13.11536302 52.94085693 13.06866455 C48.20015921 13.05828609 43.4594559 13.05383636 38.71875 13.04882812 C29.4791523 13.03822329 20.23957896 13.02124141 11 13 C11.32498978 13.57555634 11.64997955 14.15111267 11.9848175 14.74411011 C13.0452636 17.1005826 13.24816 18.53608033 13.24291992 21.09423828 C13.24599655 21.88831085 13.24907318 22.68238342 13.25224304 23.5005188 C13.24505753 24.34855072 13.23787201 25.19658264 13.23046875 26.0703125 C13.22978142 27.38647049 13.22978142 27.38647049 13.2290802 28.72921753 C13.22606397 30.58007158 13.2181965 32.43092322 13.20581055 34.28173828 C13.18752247 37.12151021 13.18530117 39.9609565 13.18554688 42.80078125 C13.18063261 44.59896116 13.17480469 46.39713886 13.16796875 48.1953125 C13.16685593 49.04739288 13.1657431 49.89947327 13.16459656 50.77737427 C13.11608196 56.76783608 13.11608196 56.76783608 12 59 C12.99 59.33 13.98 59.66 15 60 C14.34 60 13.68 60 13 60 C13 64.29 13 68.58 13 73 C12.34 73 11.68 73 11 73 C11.24556641 74.02673828 11.24556641 74.02673828 11.49609375 75.07421875 C12.06447034 78.3743278 12.09630767 81.46554069 12.0625 84.8125 C12.05347656 85.97394531 12.04445313 87.13539062 12.03515625 88.33203125 C12.02355469 89.21246094 12.01195312 90.09289062 12 91 C14.31 91 16.62 91 19 91 C19 90.34 19 89.68 19 89 C17.515 88.505 17.515 88.505 16 88 C16.99 88 17.98 88 19 88 C19 87.34 19 86.68 19 86 C17.515 85.505 17.515 85.505 16 85 C16.99 85 17.98 85 19 85 C19 84.34 19 83.68 19 83 C18.34 83 17.68 83 17 83 C17 82.34 17 81.68 17 81 C20.465 80.505 20.465 80.505 24 80 C24 79.34 24 78.68 24 78 C22.02 78 20.04 78 18 78 C18 77.34 18 76.68 18 76 C19.98 76 21.96 76 24 76 C23.67 74.35 23.34 72.7 23 71 C27.29 71 31.58 71 36 71 C36 71.99 36 72.98 36 74 C35.01 74 34.02 74 33 74 C33.26676204 75.98491642 33.26676204 75.98491642 34 78 C34.99 78.33 35.98 78.66 37 79 C36.67 82.3 36.34 85.6 36 89 C38.31 89.33 40.62 89.66 43 90 C43 92.97 43 95.94 43 99 C29.47 99.33 15.94 99.66 2 100 C2 100.66 2 101.32 2 102 C1.34 102 0.68 102 0 102 C0 68.34 0 34.68 0 0 Z " fill="#565248" transform="translate(0,1)"/>
<path d="M0 0 C4 2 4 2 6 5 C7.84747174 5.44449774 7.84747174 5.44449774 9.99893188 5.36076355 C10.83468246 5.36488754 11.67043304 5.36901154 12.5315094 5.3732605 C13.45004196 5.36247467 14.36857452 5.35168884 15.31494141 5.34057617 C16.76378471 5.34123329 16.76378471 5.34123329 18.24189758 5.34190369 C21.44532246 5.339808 24.64822868 5.31644007 27.8515625 5.29296875 C30.0683056 5.28737557 32.28505241 5.28310416 34.50180054 5.28010559 C40.34462673 5.26863494 46.18723024 5.2391486 52.02996826 5.20599365 C57.98869819 5.1753406 63.947464 5.16161045 69.90625 5.14648438 C81.60426466 5.11428108 93.30211384 5.06305791 105 5 C105 7.31 105 9.62 105 12 C94.31951261 13.0567481 83.73274956 13.13078375 73.01171875 13.09765625 C71.21425923 13.09578671 69.4167992 13.09436535 67.61933899 13.09336853 C62.93249049 13.0895855 58.24567394 13.07979218 53.55883789 13.06866455 C48.75863069 13.05835886 43.95841824 13.05385146 39.15820312 13.04882812 C29.77212153 13.03816531 20.38606344 13.02114075 11 13 C11.32498978 13.57555634 11.64997955 14.15111267 11.9848175 14.74411011 C13.0452636 17.1005826 13.24816 18.53608033 13.24291992 21.09423828 C13.24599655 21.88831085 13.24907318 22.68238342 13.25224304 23.5005188 C13.24505753 24.34855072 13.23787201 25.19658264 13.23046875 26.0703125 C13.22978142 27.38647049 13.22978142 27.38647049 13.2290802 28.72921753 C13.22606397 30.58007158 13.2181965 32.43092322 13.20581055 34.28173828 C13.18752247 37.12151021 13.18530117 39.9609565 13.18554688 42.80078125 C13.18063261 44.59896116 13.17480469 46.39713886 13.16796875 48.1953125 C13.16685593 49.04739288 13.1657431 49.89947327 13.16459656 50.77737427 C13.11608196 56.76783608 13.11608196 56.76783608 12 59 C12.99 59.33 13.98 59.66 15 60 C14.34 60 13.68 60 13 60 C13 64.29 13 68.58 13 73 C12.34 73 11.68 73 11 73 C11.24556641 74.02673828 11.24556641 74.02673828 11.49609375 75.07421875 C12.06447034 78.3743278 12.09630767 81.46554069 12.0625 84.8125 C12.05347656 85.97394531 12.04445313 87.13539062 12.03515625 88.33203125 C12.02355469 89.21246094 12.01195312 90.09289062 12 91 C14.31 91 16.62 91 19 91 C19 90.34 19 89.68 19 89 C17.515 88.505 17.515 88.505 16 88 C16.99 88 17.98 88 19 88 C19 87.34 19 86.68 19 86 C17.515 85.505 17.515 85.505 16 85 C16.99 85 17.98 85 19 85 C19 84.34 19 83.68 19 83 C18.34 83 17.68 83 17 83 C17 82.34 17 81.68 17 81 C20.465 80.505 20.465 80.505 24 80 C24 79.34 24 78.68 24 78 C22.02 78 20.04 78 18 78 C18 77.34 18 76.68 18 76 C19.98 76 21.96 76 24 76 C23.67 74.35 23.34 72.7 23 71 C27.29 71 31.58 71 36 71 C36 71.99 36 72.98 36 74 C35.01 74 34.02 74 33 74 C33.26676204 75.98491642 33.26676204 75.98491642 34 78 C34.99 78.33 35.98 78.66 37 79 C36.67 82.3 36.34 85.6 36 89 C38.31 89.33 40.62 89.66 43 90 C43 92.97 43 95.94 43 99 C29.47 99.33 15.94 99.66 2 100 C2 100.66 2 101.32 2 102 C1.34 102 0.68 102 0 102 C0 68.34 0 34.68 0 0 Z " fill="#B5B5B0" transform="translate(0,1)"/>
<path d="M0 0 C17.49 0 34.98 0 53 0 C53 0.33 53 0.66 53 1 C37.16 1.495 37.16 1.495 21 2 C21 3.65 21 5.3 21 7 C20.34 7 19.68 7 19 7 C19 7.99 19 8.98 19 10 C19.66 10 20.32 10 21 10 C21 11.32 21 12.64 21 14 C22.98 14 24.96 14 27 14 C27 28.52 27 43.04 27 58 C22.05 58 17.1 58 12 58 C12.33 59.65 12.66 61.3 13 63 C11.02 63 9.04 63 7 63 C7 63.66 7 64.32 7 65 C8.98 65 10.96 65 13 65 C13 65.66 13 66.32 13 67 C9.535 67.495 9.535 67.495 6 68 C6 68.66 6 69.32 6 70 C6.66 70 7.32 70 8 70 C8 72.64 8 75.28 8 78 C5.69 78 3.38 78 1 78 C0.04380267 74.00204108 -0.1039592 70.29196078 -0.0625 66.1875 C-0.05347656 65.02605469 -0.04445313 63.86460938 -0.03515625 62.66796875 C-0.02355469 61.78753906 -0.01195312 60.90710938 0 60 C0.66 60 1.32 60 2 60 C2.02701408 57.89590361 2.04640223 55.79170822 2.0625 53.6875 C2.07410156 52.51574219 2.08570313 51.34398437 2.09765625 50.13671875 C2.14899898 46.96940805 2.14899898 46.96940805 1 44 C0.92641175 41.02427495 0.90835117 38.07255248 0.9375 35.09765625 C0.94128662 34.22354599 0.94507324 33.34943573 0.94897461 32.44883728 C0.96533092 28.70810256 0.99345518 24.96747684 1.02050781 21.22680664 C1.03858302 18.49626164 1.05068414 15.76573435 1.0625 13.03515625 C1.07079834 12.19026138 1.07909668 11.34536652 1.08764648 10.47486877 C1.09094971 9.6840239 1.09425293 8.89317902 1.09765625 8.07836914 C1.10289307 7.3857045 1.10812988 6.69303986 1.11352539 5.97938538 C1.0407954 3.63451679 1.0407954 3.63451679 0 0 Z " fill="#41563F" transform="translate(11,14)"/>
<path d="M0 0 C0.75410156 0.0515625 1.50820312 0.103125 2.28515625 0.15625 C3.06246094 0.22070312 3.83976562 0.28515625 4.640625 0.3515625 C5.43339844 0.40828125 6.22617188 0.465 7.04296875 0.5234375 C8.99294235 0.66439945 10.94191171 0.8191337 12.890625 0.9765625 C13.22981596 4.64271159 13.56090581 8.3095504 13.890625 11.9765625 C13.98601562 13.00652344 14.08140625 14.03648438 14.1796875 15.09765625 C14.57155078 19.49212305 14.9517231 23.84739938 14.91796875 28.26171875 C14.8813247 33.24007523 15.34377776 38.14104468 15.76953125 43.09765625 C15.80949219 44.04769531 15.84945312 44.99773438 15.890625 45.9765625 C14.890625 46.9765625 14.890625 46.9765625 12.60546875 47.07421875 C11.23068359 47.05681641 11.23068359 47.05681641 9.828125 47.0390625 C8.90902344 47.03003906 7.98992187 47.02101562 7.04296875 47.01171875 C6.33269531 47.00011719 5.62242188 46.98851562 4.890625 46.9765625 C4.9628125 47.72679687 5.035 48.47703125 5.109375 49.25 C5.70781368 55.84944877 6.02254717 62.35113818 5.890625 68.9765625 C4.240625 68.9765625 2.590625 68.9765625 0.890625 68.9765625 C0.560625 61.7165625 0.230625 54.4565625 -0.109375 46.9765625 C-2.089375 46.9765625 -4.069375 46.9765625 -6.109375 46.9765625 C-10.13659507 32.9658977 -8.2158358 16.3913549 -8.109375 1.9765625 C-5.2147885 0.31359418 -3.32414299 -0.25182901 0 0 Z " fill="#B4ACA2" transform="translate(97.109375,17.0234375)"/>
<path d="M0 0 C0.66 0 1.32 0 2 0 C2.06744978 12.216841 1.88975297 24.41379914 1.57247925 36.62634277 C1.12224934 54.08881782 0.84428408 71.53106953 1 89 C4.22255893 86.19351209 6.65215027 83.6096576 7.57275391 79.34960938 C7.77958334 76.30516218 7.83337349 73.30132423 7.8125 70.25 C7.83717751 68.19267462 7.86450787 66.13537931 7.89453125 64.078125 C7.90315186 63.06790283 7.91177246 62.05768066 7.9206543 61.0168457 C8.02247257 57.14555817 8.3934135 53.32470583 8.77954102 49.47314453 C9.06716893 46.24648807 9.0973167 43.05045303 9.0625 39.8125 C9.05347656 38.70519531 9.04445313 37.59789062 9.03515625 36.45703125 C9.02355469 35.64621094 9.01195312 34.83539063 9 34 C9.66 34 10.32 34 11 34 C11.02691685 36.45840605 11.04679802 38.91651882 11.0625 41.375 C11.07087891 42.07367188 11.07925781 42.77234375 11.08789062 43.4921875 C11.11328125 48.7734375 11.11328125 48.7734375 10 51 C10.99 51.33 11.98 51.66 13 52 C12.34 52 11.68 52 11 52 C11 56.29 11 60.58 11 65 C10.34 65 9.68 65 9 65 C9.24556641 66.02673828 9.24556641 66.02673828 9.49609375 67.07421875 C10.06447034 70.3743278 10.09630767 73.46554069 10.0625 76.8125 C10.05347656 77.97394531 10.04445313 79.13539062 10.03515625 80.33203125 C10.02355469 81.21246094 10.01195312 82.09289062 10 83 C12.31 83 14.62 83 17 83 C17 82.34 17 81.68 17 81 C15.515 80.505 15.515 80.505 14 80 C14.99 80 15.98 80 17 80 C17 79.34 17 78.68 17 78 C15.515 77.505 15.515 77.505 14 77 C14.99 77 15.98 77 17 77 C17 76.34 17 75.68 17 75 C16.34 75 15.68 75 15 75 C15 74.34 15 73.68 15 73 C18.465 72.505 18.465 72.505 22 72 C22 71.34 22 70.68 22 70 C20.02 70 18.04 70 16 70 C16 69.34 16 68.68 16 68 C17.98 68 19.96 68 22 68 C21.67 66.35 21.34 64.7 21 63 C25.29 63 29.58 63 34 63 C34 63.99 34 64.98 34 66 C33.01 66 32.02 66 31 66 C31.26676204 67.98491642 31.26676204 67.98491642 32 70 C32.99 70.33 33.98 70.66 35 71 C34.67 74.3 34.34 77.6 34 81 C36.31 81.33 38.62 81.66 41 82 C41 84.97 41 87.94 41 91 C27.47 91.33 13.94 91.66 0 92 C0 92.66 0 93.32 0 94 C-0.66 94 -1.32 94 -2 94 C-2.19583296 45.41655132 -2.19583296 45.41655132 -1.5625 24.5 C-1.54285187 23.81810608 -1.52320374 23.13621216 -1.50296021 22.43365479 C-1.2798627 14.9180792 -0.88572779 7.4683698 0 0 Z " fill="#ACABA7" transform="translate(2,9)"/>
<path d="M0 0 C41.25 0 82.5 0 125 0 C125 24.75 125 49.5 125 75 C124.67 75 124.34 75 124 75 C122.84300428 62.60537562 121.74770177 50.20853406 120.78564453 37.79711914 C119.93090589 26.85852189 118.95880472 15.92986786 118 5 C116.78497803 5.03029297 115.56995605 5.06058594 114.31811523 5.09179688 C99.89559367 5.44330432 85.4722901 5.7126666 71.04724121 5.93634033 C68.2917478 5.97916787 65.53630859 6.02444077 62.78088379 6.07147217 C54.83256801 6.20597932 46.88468611 6.31779246 38.93544483 6.38004875 C35.39720956 6.40813289 31.85978578 6.44640416 28.32199097 6.50976562 C24.34099209 6.58039865 20.36050693 6.60285003 16.37890625 6.62109375 C14.5853923 6.66277931 14.5853923 6.66277931 12.75564575 6.70530701 C11.65751556 6.70257278 10.55938538 6.69983856 9.42797852 6.69702148 C8.47149918 6.70732895 7.51501984 6.71763641 6.52955627 6.72825623 C4 6 4 6 0 0 Z " fill="#7E796E" transform="translate(2,1)"/>
<path d="M0 0 C0.99 0 1.98 0 3 0 C3 0.66 3 1.32 3 2 C8.61 2 14.22 2 20 2 C20.33 1.34 20.66 0.68 21 0 C22.4546258 2.90925159 22.35539177 5.90801618 22.53515625 9.10546875 C22.57813339 9.82172928 22.62111053 10.53798981 22.66539001 11.2759552 C22.7557355 12.80160063 22.84385075 14.32737949 22.92993164 15.85327148 C23.0594466 18.13373662 23.19808472 20.41350502 23.33789062 22.69335938 C23.89710537 32.14212025 24.11750419 41.53438438 24 51 C23.01 51 22.02 51 21 51 C20.87625 50.360625 20.7525 49.72125 20.625 49.0625 C20.41875 48.381875 20.2125 47.70125 20 47 C19.01 46.505 19.01 46.505 18 46 C18 45.34 18 44.68 18 44 C18.66 44 19.32 44 20 44 C20 43.34 20 42.68 20 42 C19.34 42 18.68 42 18 42 C18 41.34 18 40.68 18 40 C18.66 40 19.32 40 20 40 C20 39.34 20 38.68 20 38 C19.01 37.67 18.02 37.34 17 37 C17.99 36.67 18.98 36.34 20 36 C20 35.34 20 34.68 20 34 C19.34 34 18.68 34 18 34 C18 33.34 18 32.68 18 32 C18.66 32 19.32 32 20 32 C20 31.34 20 30.68 20 30 C19.34 30 18.68 30 18 30 C18.33 28.68 18.66 27.36 19 26 C18.34 26 17.68 26 17 26 C17 25.34 17 24.68 17 24 C17.66 24 18.32 24 19 24 C19 23.34 19 22.68 19 22 C18.34 22 17.68 22 17 22 C17.875 17.25 17.875 17.25 19 15 C18.34 15 17.68 15 17 15 C17 14.34 17 13.68 17 13 C17.66 13 18.32 13 19 13 C19 12.34 19 11.68 19 11 C18.34 10.67 17.68 10.34 17 10 C17.66 10 18.32 10 19 10 C19 9.34 19 8.68 19 8 C18.01 8 17.02 8 16 8 C16 7.34 16 6.68 16 6 C15.34 6 14.68 6 14 6 C14 6.66 14 7.32 14 8 C13.01 8.495 13.01 8.495 12 9 C12.02320312 10.05960938 12.04640625 11.11921875 12.0703125 12.2109375 C12.08906944 13.5989513 12.10726972 14.9869727 12.125 16.375 C12.14175781 17.07367188 12.15851563 17.77234375 12.17578125 18.4921875 C12.19344267 20.32897486 12.10303261 22.16601963 12 24 C11.34 24.66 10.68 25.32 10 26 C10.33 26.99 10.66 27.98 11 29 C8.69 29 6.38 29 4 29 C4 27.68 4 26.36 4 25 C0.04 25 -3.92 25 -8 25 C-8 26.65 -8 28.3 -8 30 C-9.32 30 -10.64 30 -12 30 C-12 28.35 -12 26.7 -12 25 C-13.65 24.67 -15.3 24.34 -17 24 C-17 18.39 -17 12.78 -17 7 C-16.01 6.67 -15.02 6.34 -14 6 C-13.67 5.01 -13.34 4.02 -13 3 C-11.68 3.33 -10.36 3.66 -9 4 C-9.165 4.5775 -9.33 5.155 -9.5 5.75 C-10.14462031 8.26664369 -10.14462031 8.26664369 -10 12 C-8.35 12 -6.7 12 -5 12 C-4.67 9.36 -4.34 6.72 -4 4 C-1.69 4.33 0.62 4.66 3 5 C3 4.34 3 3.68 3 3 C2.01 3 1.02 3 0 3 C0 2.01 0 1.02 0 0 Z " fill="#302F29" transform="translate(62,18)"/>
<path d="M0 0 C0.86825912 0.00222061 1.73651825 0.00444122 2.63108826 0.00672913 C3.61202957 0.00680466 4.59297089 0.00688019 5.6036377 0.00695801 C6.6702916 0.01211929 7.7369455 0.01728058 8.83592224 0.02259827 C9.92211349 0.02401321 11.00830475 0.02542816 12.12741089 0.02688599 C15.61230674 0.03250403 19.09713941 0.04505959 22.58201599 0.05775452 C24.93813486 0.06276719 27.29425473 0.0673305 29.65037537 0.07142639 C35.44011063 0.08247933 41.2298088 0.09923501 47.01951599 0.12025452 C47.01951599 1.77025452 47.01951599 3.42025452 47.01951599 5.12025452 C41.73951599 5.12025452 36.45951599 5.12025452 31.01951599 5.12025452 C31.01951599 4.46025452 31.01951599 3.80025452 31.01951599 3.12025452 C30.02951599 3.12025452 29.03951599 3.12025452 28.01951599 3.12025452 C28.01951599 4.11025452 28.01951599 5.10025452 28.01951599 6.12025452 C29.00951599 6.12025452 29.99951599 6.12025452 31.01951599 6.12025452 C31.01951599 6.78025452 31.01951599 7.44025452 31.01951599 8.12025452 C29.03951599 8.12025452 27.05951599 8.12025452 25.01951599 8.12025452 C24.35951599 10.43025452 23.69951599 12.74025452 23.01951599 15.12025452 C21.36951599 15.12025452 19.71951599 15.12025452 18.01951599 15.12025452 C17.63888379 12.79416882 17.30681654 10.45970188 17.01951599 8.12025452 C17.34951599 7.79025452 17.67951599 7.46025452 18.01951599 7.12025452 C17.02951599 6.79025452 16.03951599 6.46025452 15.01951599 6.12025452 C14.68951599 7.44025452 14.35951599 8.76025452 14.01951599 10.12025452 C13.02951599 10.12025452 12.03951599 10.12025452 11.01951599 10.12025452 C11.01951599 15.73025452 11.01951599 21.34025452 11.01951599 27.12025452 C12.66951599 27.45025452 14.31951599 27.78025452 16.01951599 28.12025452 C16.01951599 36.37025452 16.01951599 44.62025452 16.01951599 53.12025452 C14.36951599 53.12025452 12.71951599 53.12025452 11.01951599 53.12025452 C11.01951599 51.80025452 11.01951599 50.48025452 11.01951599 49.12025452 C10.02951599 49.12025452 9.03951599 49.12025452 8.01951599 49.12025452 C8.24639099 47.86212952 8.47326599 46.60400452 8.70701599 45.30775452 C9.22144797 41.97886742 9.22144797 41.97886742 7.58201599 39.12025452 C7.06639099 38.79025452 6.55076599 38.46025452 6.01951599 38.12025452 C6.01951599 39.44025452 6.01951599 40.76025452 6.01951599 42.12025452 C6.67951599 42.45025452 7.33951599 42.78025452 8.01951599 43.12025452 C6.68618266 44.45358785 5.35284932 45.78692118 4.01951599 47.12025452 C4.01951599 35.90025452 4.01951599 24.68025452 4.01951599 13.12025452 C2.03951599 13.12025452 0.05951599 13.12025452 -1.98048401 13.12025452 C-1.98048401 11.80025452 -1.98048401 10.48025452 -1.98048401 9.12025452 C-2.64048401 9.12025452 -3.30048401 9.12025452 -3.98048401 9.12025452 C-3.98048401 8.13025452 -3.98048401 7.14025452 -3.98048401 6.12025452 C-3.32048401 6.12025452 -2.66048401 6.12025452 -1.98048401 6.12025452 C-2.25892151 4.91369202 -2.25892151 4.91369202 -2.54298401 3.68275452 C-2.68735901 2.83712952 -2.83173401 1.99150452 -2.98048401 1.12025452 C-1.98048401 0.12025452 -1.98048401 0.12025452 0 0 Z " fill="#2B2B27" transform="translate(33.98048400878906,14.879745483398438)"/>
<path d="M0 0 C0 2.31 0 4.62 0 7 C-16.04728969 8.51877636 -32.15344672 8.37341103 -48.25805664 8.45996094 C-52.05733407 8.48238569 -55.85565223 8.52441855 -59.65454102 8.58300781 C-64.27322438 8.654042 -68.89099339 8.69077591 -73.51019478 8.70307922 C-75.26094349 8.71346304 -77.01166525 8.73584771 -78.76209831 8.77067566 C-92.44100839 9.02925615 -92.44100839 9.02925615 -96.43435669 6.39282227 C-98.11547852 4.45507812 -98.11547852 4.45507812 -100 1 C-90.0834219 0.82789387 -80.16675676 0.66145052 -70.25 0.5 C-69.52067261 0.48812275 -68.79134521 0.4762455 -68.03991699 0.46400833 C-45.35879878 0.09637836 -22.68458455 -0.15726301 0 0 Z " fill="#BEBEBB" transform="translate(105,6)"/>
<path d="M0 0 C3.3 0 6.6 0 10 0 C9.67 0.66 9.34 1.32 9 2 C8.95977609 4.3329866 8.95679753 6.66706666 9 9 C9.99 9.33 10.98 9.66 12 10 C12 11.65 12 13.3 12 15 C11.01 15 10.02 15 9 15 C9 16.98 9 18.96 9 21 C8.67 21 8.34 21 8 21 C8 18.36 8 15.72 8 13 C6.02 13 4.04 13 2 13 C1.67 17.62 1.34 22.24 1 27 C3.31 27.33 5.62 27.66 8 28 C8 26.35 8 24.7 8 23 C8.33 23.66 8.66 24.32 9 25 C9.99 25 10.98 25 12 25 C12 22.36 12 19.72 12 17 C12.99 17 13.98 17 15 17 C15 20.3 15 23.6 15 27 C16.32 27.33 17.64 27.66 19 28 C12.25 28.125 12.25 28.125 10 27 C10 27.66 10 28.32 10 29 C10.66 29.33 11.32 29.66 12 30 C8.79937313 31.60031344 6.27728194 30.03173691 3 29 C2.94465088 29.83249268 2.88930176 30.66498535 2.83227539 31.52270508 C2.62481664 34.61472559 2.4138243 37.70647895 2.20043945 40.7980957 C2.06383896 42.79294644 1.93131328 44.78807485 1.79882812 46.78320312 C1.71181641 48.03681641 1.62480469 49.29042969 1.53515625 50.58203125 C1.456604 51.73936768 1.37805176 52.8967041 1.29711914 54.08911133 C1 57 1 57 0 60 C2.31 60 4.62 60 7 60 C7 60.66 7 61.32 7 62 C5.02 62 3.04 62 1 62 C1 62.66 1 63.32 1 64 C2.98 64 4.96 64 7 64 C7 64.66 7 65.32 7 66 C3.535 66.495 3.535 66.495 0 67 C0 67.66 0 68.32 0 69 C0.66 69 1.32 69 2 69 C2 71.64 2 74.28 2 77 C-0.31 77 -2.62 77 -5 77 C-5.95619733 73.00204108 -6.1039592 69.29196078 -6.0625 65.1875 C-6.05347656 64.02605469 -6.04445313 62.86460938 -6.03515625 61.66796875 C-6.02355469 60.78753906 -6.01195312 59.90710938 -6 59 C-5.34 59 -4.68 59 -4 59 C-3.97298592 56.89590361 -3.95359777 54.79170822 -3.9375 52.6875 C-3.92589844 51.51574219 -3.91429687 50.34398437 -3.90234375 49.13671875 C-3.85100102 45.96940805 -3.85100102 45.96940805 -5 43 C-5.12656675 40.50692931 -5.18977324 38.0559553 -5.1875 35.5625 C-5.18814453 34.829104 -5.18878906 34.09570801 -5.18945312 33.34008789 C-5.10501686 24.17395616 -4.05359224 15.0966401 -3 6 C-2.01 6 -1.02 6 0 6 C-0.185625 5.38125 -0.37125 4.7625 -0.5625 4.125 C-1 2 -1 2 0 0 Z " fill="#23241F" transform="translate(17,15)"/>
<path d="M0 0 C0.99386719 0.00902344 1.98773438 0.01804687 3.01171875 0.02734375 C4.15060547 0.04474609 4.15060547 0.04474609 5.3125 0.0625 C5.90568741 7.6616883 6.49164053 15.26139687 7.06884766 22.86181641 C7.21295329 24.75482732 7.35805255 26.64776376 7.50537109 28.54052734 C8.1932712 37.40886109 8.43582656 46.16928485 8.3125 55.0625 C7.9825 55.0625 7.6525 55.0625 7.3125 55.0625 C7.3125 61.6625 7.3125 68.2625 7.3125 75.0625 C3.0225 75.0625 -1.2675 75.0625 -5.6875 75.0625 C-6.45311134 67.02358096 -6.81633271 59.13601654 -6.6875 51.0625 C-1.7375 50.5675 -1.7375 50.5675 3.3125 50.0625 C2.85917652 39.30812377 2.4044977 28.57443361 1.5 17.84765625 C1.21256533 13.57805383 1.24865462 9.3401403 1.3125 5.0625 C-2.9775 4.7325 -7.2675 4.4025 -11.6875 4.0625 C-7.71549787 0.09049787 -5.38958784 -0.06340692 0 0 Z " fill="#161611" transform="translate(108.6875,12.9375)"/>
<path d="M0 0 C4.29 0 8.58 0 13 0 C14.23510205 12.71493449 15.26347565 25.221431 15 38 C10.71 37.67 6.42 37.34 2 37 C2 36.34 2 35.68 2 35 C4.64 35 7.28 35 10 35 C10 34.34 10 33.68 10 33 C7.36 33 4.72 33 2 33 C1.49242138 31.58603098 0.99425075 30.16868271 0.5 28.75 C0.08234375 27.56664062 0.08234375 27.56664062 -0.34375 26.359375 C-1 24 -1 24 -1 20 C-1.01160156 19.27941406 -1.02320312 18.55882813 -1.03515625 17.81640625 C-1.08510725 13.69901673 -0.87270432 10.03625749 0 6 C0 4.02 0 2.04 0 0 Z " fill="#B7B8B0" transform="translate(94,18)"/>
<path d="M0 0 C4.29 0 8.58 0 13 0 C13 5.94 13 11.88 13 18 C14.65 18.33 16.3 18.66 18 19 C18 27.25 18 35.5 18 44 C16.35 44 14.7 44 13 44 C13 42.68 13 41.36 13 40 C12.01 40 11.02 40 10 40 C10.226875 38.741875 10.45375 37.48375 10.6875 36.1875 C11.20193197 32.85861291 11.20193197 32.85861291 9.5625 30 C9.046875 29.67 8.53125 29.34 8 29 C8 30.32 8 31.64 8 33 C8.66 33.33 9.32 33.66 10 34 C8.66666667 35.33333333 7.33333333 36.66666667 6 38 C6 26.78 6 15.56 6 4 C4.02 4 2.04 4 0 4 C0 2.68 0 1.36 0 0 Z " fill="#14150F" transform="translate(32,24)"/>
<path d="M0 0 C1.32 0.33 2.64 0.66 4 1 C3.835 1.5775 3.67 2.155 3.5 2.75 C2.85537969 5.26664369 2.85537969 5.26664369 3 9 C3.63808594 8.91621094 4.27617188 8.83242188 4.93359375 8.74609375 C5.75988281 8.64425781 6.58617187 8.54242188 7.4375 8.4375 C8.26121094 8.33308594 9.08492187 8.22867187 9.93359375 8.12109375 C10.61550781 8.08113281 11.29742187 8.04117187 12 8 C13 9 13 9 13.0625 12.5625 C13.041875 13.696875 13.02125 14.83125 13 16 C16.96 16 20.92 16 25 16 C25 17.65 25 19.3 25 21 C24.34 21.66 23.68 22.32 23 23 C23.33 23.99 23.66 24.98 24 26 C21.69 26 19.38 26 17 26 C17 24.68 17 23.36 17 22 C13.04 22 9.08 22 5 22 C5 23.65 5 25.3 5 27 C3.68 27 2.36 27 1 27 C1 25.35 1 23.7 1 22 C-0.65 21.67 -2.3 21.34 -4 21 C-4 15.39 -4 9.78 -4 4 C-3.01 3.67 -2.02 3.34 -1 3 C-0.67 2.01 -0.34 1.02 0 0 Z " fill="#8B8374" transform="translate(49,21)"/>
<path d="M0 0 C2.64 0.66 5.28 1.32 8 2 C8 2.99 8 3.98 8 5 C8.99 5 9.98 5 11 5 C11.33 7.64 11.66 10.28 12 13 C12.66 13 13.32 13 14 13 C14.33 11.68 14.66 10.36 15 9 C15 9.66 15 10.32 15 11 C15.66 11 16.32 11 17 11 C17 13.31 17 15.62 17 18 C15.35 17.67 13.7 17.34 12 17 C12.33 17.33 12.66 17.66 13 18 C13.04092937 20.33297433 13.04241723 22.66705225 13 25 C14.32 25 15.64 25 17 25 C17 25.99 17 26.98 17 28 C11.39 28 5.78 28 0 28 C0 27.34 0 26.68 0 26 C0.66 26 1.32 26 2 26 C1.65555119 23.52733235 1.65555119 23.52733235 1 21 C0.34 20.67 -0.32 20.34 -1 20 C-1.12910853 13.25766581 -0.797837 6.69613196 0 0 Z " fill="#4D7759" transform="translate(19,43)"/>
<path d="M0 0 C0.66 0 1.32 0 2 0 C2 14.52 2 29.04 2 44 C-2.95 44 -7.9 44 -13 44 C-13 44.99 -13 45.98 -13 47 C-14.98 47 -16.96 47 -19 47 C-18.67 43.04 -18.34 39.08 -18 35 C-17.01 35.33 -16.02 35.66 -15 36 C-15 37.65 -15 39.3 -15 41 C-15.66 41 -16.32 41 -17 41 C-17 41.66 -17 42.32 -17 43 C-11.39 43 -5.78 43 0 43 C0 42.01 0 41.02 0 40 C-1.32 40 -2.64 40 -4 40 C-4 37.69 -4 35.38 -4 33 C-4.66 33 -5.32 33 -6 33 C-5.67 32.34 -5.34 31.68 -5 31 C-3.68 31.33 -2.36 31.66 -1 32 C-0.67 30.02 -0.34 28.04 0 26 C-0.66 26 -1.32 26 -2 26 C-2.33 26.66 -2.66 27.32 -3 28 C-3.66 28 -4.32 28 -5 28 C-5.33 25.36 -5.66 22.72 -6 20 C-6.99 20 -7.98 20 -9 20 C-9 18 -9 16 -9 14 C-7.35 14 -5.7 14 -4 14 C-4 10.37 -4 6.74 -4 3 C-2.68 3 -1.36 3 0 3 C0 2.01 0 1.02 0 0 Z " fill="#3E6F4D" transform="translate(36,28)"/>
<path d="M0 0 C0.66 0 1.32 0 2 0 C2 0.66 2 1.32 2 2 C2.99 2 3.98 2 5 2 C5 3.65 5 5.3 5 7 C4.34 7 3.68 7 3 7 C3 7.66 3 8.32 3 9 C3.66 9 4.32 9 5 9 C5 10.32 5 11.64 5 13 C4.01 13.495 4.01 13.495 3 14 C3 14.66 3 15.32 3 16 C3.66 16 4.32 16 5 16 C5 16.66 5 17.32 5 18 C4.34 18 3.68 18 3 18 C3 18.66 3 19.32 3 20 C3.66 20 4.32 20 5 20 C4.67 21.32 4.34 22.64 4 24 C4.66 24 5.32 24 6 24 C6 24.66 6 25.32 6 26 C5.34 26 4.68 26 4 26 C4 26.66 4 27.32 4 28 C4.66 28 5.32 28 6 28 C6 28.66 6 29.32 6 30 C5.34 30.33 4.68 30.66 4 31 C4.66 31.33 5.32 31.66 6 32 C6 32.66 6 33.32 6 34 C5.34 34 4.68 34 4 34 C4 34.66 4 35.32 4 36 C4.66 36 5.32 36 6 36 C6 36.66 6 37.32 6 38 C5.34 38 4.68 38 4 38 C4 38.66 4 39.32 4 40 C4.66 40 5.32 40 6 40 C6 41.65 6 43.3 6 45 C3.525 45.495 3.525 45.495 1 46 C1 44.35 1 42.7 1 41 C-0.32 40.67 -1.64 40.34 -3 40 C-2.34 39.01 -1.68 38.02 -1 37 C-1.66 36.67 -2.32 36.34 -3 36 C-3.625 33.4375 -3.625 33.4375 -4 31 C-3.34 30.67 -2.68 30.34 -2 30 C-2.66 29.01 -3.32 28.02 -4 27 C-3.01 26.67 -2.02 26.34 -1 26 C-1.99 25.34 -2.98 24.68 -4 24 C-3.01 23.67 -2.02 23.34 -1 23 C-2.65 21.68 -4.3 20.36 -6 19 C-5.01 18.67 -4.02 18.34 -3 18 C-3 12.72 -3 7.44 -3 2 C-2.01 2 -1.02 2 0 2 C0 1.34 0 0.68 0 0 Z " fill="#1B1B18" transform="translate(76,24)"/>
<path d="M0 0 C1.20785156 -0.06058594 2.41570312 -0.12117187 3.66015625 -0.18359375 C6.9375 0.4375 6.9375 0.4375 9.09277344 3.04003906 C11.12800696 6.78835957 11.53076549 9.18431662 11.73046875 13.41796875 C11.76682938 14.07146805 11.80319 14.72496735 11.84065247 15.39826965 C11.95258118 17.47339377 12.03956377 19.54863328 12.125 21.625 C12.19293516 22.99813337 12.2625834 24.37118311 12.33398438 25.74414062 C12.4731642 28.42045479 12.6049382 31.09672603 12.73217773 33.77368164 C12.90670459 36.88797953 13.16296991 39.96868254 13.484375 43.0703125 C14.10316703 49.4201985 14.04652802 55.75066127 14 62.125 C13.99548828 63.31544922 13.99097656 64.50589844 13.98632812 65.73242188 C13.97467452 68.63416936 13.95831559 71.53580626 13.9375 74.4375 C13.6075 74.4375 13.2775 74.4375 12.9375 74.4375 C11.76962109 61.92628662 10.6781968 49.41216111 9.69238281 36.88525391 C8.83746152 26.06357238 7.88963704 15.25105639 6.9375 4.4375 C-7.9125 4.4375 -22.7625 4.4375 -38.0625 4.4375 C-38.0625 4.1075 -38.0625 3.7775 -38.0625 3.4375 C-37.30106689 3.38215088 -36.53963379 3.32680176 -35.75512695 3.26977539 C-32.29483914 3.01641641 -28.83492548 2.75825807 -25.375 2.5 C-24.17681641 2.41298828 -22.97863281 2.32597656 -21.74414062 2.23632812 C-20.58720703 2.14931641 -19.43027344 2.06230469 -18.23828125 1.97265625 C-16.64367065 1.85482788 -16.64367065 1.85482788 -15.0168457 1.73461914 C-9.94380731 1.22442265 -5.12809122 0.18099145 0 0 Z " fill="#35322C" transform="translate(113.0625,1.5625)"/>
<path d="M0 0 C4.29 0 8.58 0 13 0 C13 5.94 13 11.88 13 18 C9.04 18 5.08 18 1 18 C-0.50642297 13.4807311 -1.18067128 10.604618 0 6 C0 4.02 0 2.04 0 0 Z " fill="#D1CEBA" transform="translate(94,18)"/>
<path d="M0 0 C0 0.33 0 0.66 0 1 C-0.75619629 1.05534912 -1.51239258 1.11069824 -2.29150391 1.16772461 C-5.73621904 1.42147068 -9.1806051 1.67944491 -12.625 1.9375 C-13.81480469 2.02451172 -15.00460938 2.11152344 -16.23046875 2.20117188 C-17.38417969 2.28818359 -18.53789063 2.37519531 -19.7265625 2.46484375 C-20.78439941 2.543396 -21.84223633 2.62194824 -22.93212891 2.70288086 C-25.96870745 2.95436065 -25.96870745 2.95436065 -28.81265259 3.50949097 C-31.95190323 3.99259827 -34.89175933 4.13350462 -38.06542969 4.14526367 C-39.23974548 4.15164352 -40.41406128 4.15802338 -41.6239624 4.16459656 C-43.50392914 4.16626579 -43.50392914 4.16626579 -45.421875 4.16796875 C-47.36637543 4.17296135 -47.36637543 4.17296135 -49.35015869 4.17805481 C-52.08354528 4.18402 -54.81690034 4.18589712 -57.55029297 4.18530273 C-61.05650325 4.1852006 -64.56251335 4.19891694 -68.06867599 4.21607494 C-71.41557908 4.22983501 -74.76244395 4.22928219 -78.109375 4.23046875 C-79.37078308 4.23765427 -80.63219116 4.24483978 -81.93182373 4.25224304 C-83.09353088 4.24916641 -84.25523804 4.24608978 -85.45214844 4.24291992 C-86.99053375 4.24505745 -86.99053375 4.24505745 -88.55999756 4.24723816 C-91 4 -91 4 -93 2 C-91.11913605 0.11913605 -87.88512413 0.8256402 -85.37915039 0.79467773 C-84.68615341 0.78477814 -83.99315643 0.77487854 -83.27915955 0.76467896 C-80.96869384 0.73290022 -78.6582086 0.70820343 -76.34765625 0.68359375 C-74.73310341 0.66299922 -73.11855567 0.64200213 -71.50401306 0.62062073 C-68.10174407 0.57655018 -64.6994573 0.5356702 -61.29711914 0.49731445 C-56.98860809 0.44873845 -52.68018183 0.3951096 -48.37175846 0.33933926 C-44.21791174 0.28573539 -40.06403699 0.23448346 -35.91015625 0.18359375 C-35.14023912 0.17403593 -34.370322 0.16447811 -33.57707405 0.15463066 C-22.38424601 0.01813858 -11.19362529 -0.02184167 0 0 Z " fill="#535048" transform="translate(101,3)"/>
<path d="M0 0 C-0.66 0 -1.32 0 -2 0 C-1.91621094 0.73605469 -1.83242187 1.47210937 -1.74609375 2.23046875 C-1.59333984 3.69419922 -1.59333984 3.69419922 -1.4375 5.1875 C-1.33308594 6.15042969 -1.22867188 7.11335938 -1.12109375 8.10546875 C-1.00190118 10.95455576 -1.40864708 13.22803319 -2 16 C-1.61666338 19.22111592 -1.61666338 19.22111592 -1 22 C-1.66 22 -2.32 22 -3 22 C-2.77183594 22.53109375 -2.54367188 23.0621875 -2.30859375 23.609375 C-2.02113281 24.31578125 -1.73367187 25.0221875 -1.4375 25.75 C-1.14746094 26.44609375 -0.85742188 27.1421875 -0.55859375 27.859375 C0.09424605 30.36116667 -0.27551503 31.55190374 -1 34 C-1.08949422 35.51876954 -1.13014855 37.04110471 -1.125 38.5625 C-1.12757812 39.32691406 -1.13015625 40.09132812 -1.1328125 40.87890625 C-1.07907384 43.18998495 -1.07907384 43.18998495 0 46 C-1.65 46 -3.3 46 -5 46 C-9.02722007 31.9893352 -7.1064608 15.4147924 -7 1 C-3.375 -1.125 -3.375 -1.125 0 0 Z " fill="#858377" transform="translate(96,18)"/>
<path d="M0 0 C2.75826124 2.75826124 2.45228994 5.39871891 2.6328125 9.10546875 C2.67437469 9.82172928 2.71593689 10.53798981 2.75875854 11.2759552 C2.84538845 12.80148241 2.9274601 14.32727414 3.00537109 15.85327148 C3.1222581 18.1339994 3.25312392 20.41355617 3.38671875 22.69335938 C3.91835479 32.13896549 4.10961034 41.53958364 4 51 C3.01 51 2.02 51 1 51 C0.87625 50.360625 0.7525 49.72125 0.625 49.0625 C0.41875 48.381875 0.2125 47.70125 0 47 C-0.66 46.67 -1.32 46.34 -2 46 C-2 45.34 -2 44.68 -2 44 C-1.34 44 -0.68 44 0 44 C0 43.34 0 42.68 0 42 C-0.66 42 -1.32 42 -2 42 C-2 41.34 -2 40.68 -2 40 C-1.34 40 -0.68 40 0 40 C0 39.34 0 38.68 0 38 C-0.99 37.67 -1.98 37.34 -3 37 C-1.515 36.505 -1.515 36.505 0 36 C0 35.34 0 34.68 0 34 C-0.66 34 -1.32 34 -2 34 C-2 33.34 -2 32.68 -2 32 C-1.34 32 -0.68 32 0 32 C0 31.34 0 30.68 0 30 C-0.66 30 -1.32 30 -2 30 C-1.67 28.68 -1.34 27.36 -1 26 C-1.66 26 -2.32 26 -3 26 C-3 25.34 -3 24.68 -3 24 C-2.34 24 -1.68 24 -1 24 C-1 23.34 -1 22.68 -1 22 C-1.66 22 -2.32 22 -3 22 C-2.125 17.25 -2.125 17.25 -1 15 C-1.66 15 -2.32 15 -3 15 C-3 14.34 -3 13.68 -3 13 C-2.34 13 -1.68 13 -1 13 C-1 12.34 -1 11.68 -1 11 C-1.66 10.67 -2.32 10.34 -3 10 C-2.34 10 -1.68 10 -1 10 C-1 9.34 -1 8.68 -1 8 C-1.66 8 -2.32 8 -3 8 C-3 7.34 -3 6.68 -3 6 C-2.34 6 -1.68 6 -1 6 C-0.67 4.02 -0.34 2.04 0 0 Z " fill="#85847D" transform="translate(82,18)"/>
<path d="M0 0 C-1.32 0.99 -2.64 1.98 -4 3 C-1.36 3.33 1.28 3.66 4 4 C4 4.33 4 4.66 4 5 C3.03578125 4.98839844 2.0715625 4.97679687 1.078125 4.96484375 C-0.18515625 4.95582031 -1.4484375 4.94679688 -2.75 4.9375 C-4.62945312 4.92009766 -4.62945312 4.92009766 -6.546875 4.90234375 C-10.12834918 4.87978606 -10.12834918 4.87978606 -14 6 C-13.34 20.85 -12.68 35.7 -12 51 C-12.99 50.34 -13.98 49.68 -15 49 C-14.67 47.02 -14.34 45.04 -14 43 C-14.66 43 -15.32 43 -16 43 C-16 42.34 -16 41.68 -16 41 C-15.34 41 -14.68 41 -14 41 C-14 40.34 -14 39.68 -14 39 C-14.66 38.67 -15.32 38.34 -16 38 C-15.34 38 -14.68 38 -14 38 C-14 37.01 -14 36.02 -14 35 C-14.66 34.67 -15.32 34.34 -16 34 C-16.02692484 31.70839681 -16.04636124 29.41670454 -16.0625 27.125 C-16.07410156 25.84882812 -16.08570312 24.57265625 -16.09765625 23.2578125 C-16 20 -16 20 -15 18 C-15.66 18 -16.32 18 -17 18 C-17 17.34 -17 16.68 -17 16 C-16.34 16 -15.68 16 -15 16 C-15 15.34 -15 14.68 -15 14 C-15.66 13.67 -16.32 13.34 -17 13 C-16.34 13 -15.68 13 -15 13 C-15.66 12.01 -16.32 11.02 -17 10 C-17.99 10.495 -17.99 10.495 -19 11 C-19.66 9.68 -20.32 8.36 -21 7 C-21.33 7 -21.66 7 -22 7 C-22 5.35 -22 3.7 -22 2 C-27.61 2 -33.22 2 -39 2 C-39 1.67 -39 1.34 -39 1 C-34.56262213 0.82997513 -30.12508207 0.66460204 -25.6875 0.5 C-24.44419922 0.45230469 -23.20089844 0.40460937 -21.91992188 0.35546875 C-14.60895533 0.08682431 -7.31586506 -0.06804577 0 0 Z " fill="#484844" transform="translate(103,13)"/>
<path d="M0 0 C3.47914941 -0.02887814 6.95826831 -0.04675687 10.4375 -0.0625 C11.92733398 -0.07506836 11.92733398 -0.07506836 13.44726562 -0.08789062 C14.39150391 -0.09111328 15.33574219 -0.09433594 16.30859375 -0.09765625 C17.62041626 -0.10551147 17.62041626 -0.10551147 18.95874023 -0.11352539 C21 0 21 0 22 1 C22 3.64 22 6.28 22 9 C14.74 9 7.48 9 0 9 C0 6.03 0 3.06 0 0 Z " fill="#BABAB7" transform="translate(89,89)"/>
<path d="M0 0 C0.66 0 1.32 0 2 0 C2.05408317 13.08812643 1.91402135 26.16503332 1.625 39.25 C1.6045462 40.19846802 1.58409241 41.14693604 1.5630188 42.12414551 C1.1919875 58.79378926 0.35606012 75.3798745 -1 92 C-1.33 92 -1.66 92 -2 92 C-2.19093886 45.47554353 -2.19093886 45.47554353 -1.5625 24.625 C-1.54285187 23.93956116 -1.52320374 23.25412231 -1.50296021 22.5479126 C-1.28014382 14.99415068 -0.89254452 7.50613512 0 0 Z " fill="#504E47" transform="translate(2,9)"/>
<path d="M0 0 C4.29 0 8.58 0 13 0 C13.33 7.59 13.66 15.18 14 23 C13.67 22.34 13.34 21.68 13 21 C10.69 21 8.38 21 6 21 C6 15.39 6 9.78 6 4 C4.02 4 2.04 4 0 4 C0 2.68 0 1.36 0 0 Z " fill="#0D0F0A" transform="translate(32,24)"/>
<path d="M0 0 C4.29 0 8.58 0 13 0 C13 0.99 13 1.98 13 3 C12.01 3 11.02 3 10 3 C10.27617533 4.94074861 10.27617533 4.94074861 11 7 C11.99 7.66 12.98 8.32 14 9 C9.38 9.33 4.76 9.66 0 10 C0 13.3 0 16.6 0 20 C-1.32 20.33 -2.64 20.66 -4 21 C-4 20.01 -4 19.02 -4 18 C-4.99 17.67 -5.98 17.34 -7 17 C-6.01 17 -5.02 17 -4 17 C-4 16.34 -4 15.68 -4 15 C-4.99 14.67 -5.98 14.34 -7 14 C-6.01 14 -5.02 14 -4 14 C-4 13.34 -4 12.68 -4 12 C-4.66 12 -5.32 12 -6 12 C-6 11.34 -6 10.68 -6 10 C-2.535 9.505 -2.535 9.505 1 9 C1 8.34 1 7.68 1 7 C-0.98 7 -2.96 7 -5 7 C-5 6.34 -5 5.68 -5 5 C-3.02 5 -1.04 5 1 5 C0.67 3.35 0.34 1.7 0 0 Z " fill="#BFA437" transform="translate(23,72)"/>
<path d="M0 0 C1.65 0.33 3.3 0.66 5 1 C5.33 2.65 5.66 4.3 6 6 C4.68 6 3.36 6 2 6 C1.67 9.3 1.34 12.6 1 16 C1.66 16 2.32 16 3 16 C3.33 15.34 3.66 14.68 4 14 C4 14.99 4 15.98 4 17 C4.66 17 5.32 17 6 17 C6 15.35 6 13.7 6 12 C6.66 12 7.32 12 8 12 C8 14.31 8 16.62 8 19 C9.32 19 10.64 19 12 19 C12 19.99 12 20.98 12 22 C6.39 22 0.78 22 -5 22 C-5 21.34 -5 20.68 -5 20 C-4.34 20 -3.68 20 -3 20 C-3.34444881 17.52733235 -3.34444881 17.52733235 -4 15 C-4.66 14.67 -5.32 14.34 -6 14 C-6 10.7 -6 7.4 -6 4 C-5.67 4 -5.34 4 -5 4 C-5 6.97 -5 9.94 -5 13 C-2.70621648 12.13117495 -2.70621648 12.13117495 -1.9375 9.3125 C-1.05914887 6.20899268 -0.45573685 3.19015795 0 0 Z " fill="#2A5336" transform="translate(24,49)"/>
<path d="M0 0 C0 7.59 0 15.18 0 23 C-1.65 23.33 -3.3 23.66 -5 24 C-7.4662586 19.30281282 -7.05341417 15.29848102 -6.625 10.1875 C-6.56828125 9.39923828 -6.5115625 8.61097656 -6.453125 7.79882812 C-6.31249026 5.86510039 -6.15766112 3.93241405 -6 2 C-7.32 2 -8.64 2 -10 2 C-10 1.34 -10 0.68 -10 0 C-7 -1 -7 -1 0 0 Z " fill="#13110E" transform="translate(65,44)"/>
<path d="M0 0 C0 16.17 0 32.34 0 49 C-0.33 49 -0.66 49 -1 49 C-1.31953072 45.93808913 -1.63215946 42.87584174 -1.9375 39.8125 C-2.0310376 38.87736572 -2.1245752 37.94223145 -2.22094727 36.97875977 C-2.95903436 29.24466607 -3.35278989 21.5233466 -3.48217773 13.75512695 C-3.62081289 9.20319873 -3.71580136 6.44184017 -7 3 C-7 2.34 -7 1.68 -7 1 C-12.94 1.33 -18.88 1.66 -25 2 C-18.04409493 -2.63727005 -8.35995747 0 0 0 Z " fill="#5B554A" transform="translate(127,1)"/>
<path d="M0 0 C17.49 0 34.98 0 53 0 C53 0.33 53 0.66 53 1 C37.16 1.495 37.16 1.495 21 2 C21 3.65 21 5.3 21 7 C20.34 7 19.68 7 19 7 C19 7.99 19 8.98 19 10 C17.68 10 16.36 10 15 10 C15 7.69 15 5.38 15 3 C10.545 2.01 10.545 2.01 6 1 C6 2.98 6 4.96 6 7 C5.01 7 4.02 7 3 7 C3.01160156 7.7734375 3.02320313 8.546875 3.03515625 9.34375 C3.08709845 15.33936364 2.91184156 21.07302983 2 27 C1.67 27 1.34 27 1 27 C1.00523682 26.32420898 1.01047363 25.64841797 1.01586914 24.95214844 C1.03668007 21.88477511 1.04967329 18.81741667 1.0625 15.75 C1.07087891 14.68652344 1.07925781 13.62304688 1.08789062 12.52734375 C1.09111328 11.50253906 1.09433594 10.47773438 1.09765625 9.421875 C1.10289307 8.47924805 1.10812988 7.53662109 1.11352539 6.56542969 C1.07342329 3.72869892 1.07342329 3.72869892 0 0 Z " fill="#74746F" transform="translate(11,14)"/>
<path d="M0 0 C0 0.99 0 1.98 0 3 C-0.99 3.66 -1.98 4.32 -3 5 C-2.01 5.66 -1.02 6.32 0 7 C-0.99 7.66 -1.98 8.32 -3 9 C-2.34 9.66 -1.68 10.32 -1 11 C-1.66 11 -2.32 11 -3 11 C-3 11.66 -3 12.32 -3 13 C-2.01 13.33 -1.02 13.66 0 14 C-2.1875 16.5 -2.1875 16.5 -5 19 C-6.65 19 -8.3 19 -10 19 C-10 12.73 -10 6.46 -10 0 C-3 -1 -3 -1 0 0 Z " fill="#3A3735" transform="translate(76,47)"/>
<path d="M0 0 C0.33 0 0.66 0 1 0 C1 9.57 1 19.14 1 29 C-3.95 29 -8.9 29 -14 29 C-14 29.99 -14 30.98 -14 32 C-15.98 32 -17.96 32 -20 32 C-19.67 28.04 -19.34 24.08 -19 20 C-18.01 20.33 -17.02 20.66 -16 21 C-16 22.65 -16 24.3 -16 26 C-16.66 26 -17.32 26 -18 26 C-18 26.66 -18 27.32 -18 28 C-12.39 28 -6.78 28 -1 28 C-1 27.01 -1 26.02 -1 25 C-2.32 25 -3.64 25 -5 25 C-5 22.69 -5 20.38 -5 18 C-5.66 18 -6.32 18 -7 18 C-6.67 17.34 -6.34 16.68 -6 16 C-4.68 16.33 -3.36 16.66 -2 17 C-1.34 11.39 -0.68 5.78 0 0 Z " fill="#6FA66E" transform="translate(37,43)"/>
<path d="M0 0 C0.99 0 1.98 0 3 0 C3.33919096 3.66614909 3.67028081 7.3329879 4 11 C4.09539062 12.02996094 4.19078125 13.05992188 4.2890625 14.12109375 C4.79387828 19.78224213 5.04773635 25.31937474 5 31 C5.14236189 33.50150172 5.30783313 36.00183074 5.5 38.5 C5.5928125 39.7271875 5.685625 40.954375 5.78125 42.21875 C5.8534375 43.1365625 5.925625 44.054375 6 45 C4.02 45.495 4.02 45.495 2 46 C1.7124204 40.73484581 1.42768813 35.46954789 1.14550781 30.20410156 C1.04927109 28.41564859 0.95227823 26.62723612 0.85449219 24.83886719 C0.71346828 22.25726631 0.57523151 19.67552838 0.4375 17.09375 C0.39375244 16.30383667 0.35000488 15.51392334 0.30493164 14.70007324 C0.04642398 9.79232869 -0.0391604 4.91463051 0 0 Z " fill="#747264" transform="translate(107,18)"/>
<path d="M0 0 C-0.33 2.97 -0.66 5.94 -1 9 C-5.50353262 10.75747614 -9.17639811 11.19294408 -14 11 C-14 7.7 -14 4.4 -14 1 C-9.23692563 0.04738513 -4.8333472 -0.08333357 0 0 Z " fill="#D0CEBB" transform="translate(37,81)"/>
<path d="M0 0 C0 0.33 0 0.66 0 1 C-12.35180407 1.72816955 -24.67115609 2.18108808 -37.04296875 2.31640625 C-38.67491571 2.33706739 -40.30685843 2.35806553 -41.938797 2.37937927 C-46.16190072 2.43365752 -50.38504476 2.48346784 -54.60821533 2.53222656 C-58.94652748 2.58314596 -63.28478362 2.63845803 -67.62304688 2.69335938 C-76.08198342 2.7997816 -84.5409679 2.90146621 -93 3 C-92.67 3.66 -92.34 4.32 -92 5 C-93.65 4.67 -95.3 4.34 -97 4 C-97 3.01 -97 2.02 -97 1 C-64.66439369 0.36705095 -32.34260573 -0.19297497 0 0 Z " fill="#6F695F" transform="translate(102,2)"/>
<path d="M0 0 C4.62 0 9.24 0 14 0 C14 0.99 14 1.98 14 3 C14.66 3 15.32 3 16 3 C16 2.01 16 1.02 16 0 C19.63 0 23.26 0 27 0 C27 1.65 27 3.3 27 5 C18.09 5 9.18 5 0 5 C0 3.35 0 1.7 0 0 Z " fill="#11100C" transform="translate(100,98)"/>
<path d="M0 0 C1.485 0.99 1.485 0.99 3 2 C3.1875 4.625 3.1875 4.625 3 7 C2.34 7 1.68 7 1 7 C1 7.66 1 8.32 1 9 C1.66 9 2.32 9 3 9 C2.98839844 10.09699219 2.97679688 11.19398437 2.96484375 12.32421875 C2.95546036 13.77864412 2.94636075 15.23307135 2.9375 16.6875 C2.92912109 17.40873047 2.92074219 18.12996094 2.91210938 18.87304688 C2.89451887 22.72536772 3.11670988 26.25123325 4 30 C4 30.66 4 31.32 4 32 C3.34 32 2.68 32 2 32 C2 32.66 2 33.32 2 34 C2.66 34 3.32 34 4 34 C4 36.97 4 39.94 4 43 C3.01 43 2.02 43 1 43 C0.70957482 39.09007374 0.42504869 35.17976281 0.14550781 31.26904297 C0.00362064 29.30023947 -0.14266349 27.3317544 -0.2890625 25.36328125 C-1.83125 3.6625 -1.83125 3.6625 0 0 Z " fill="#161612" transform="translate(85,22)"/>
<path d="M0 0 C0.33 0 0.66 0 1 0 C1.5871691 5.11586694 2.15510918 10.23344968 2.70898438 15.35302734 C2.89747941 17.06750989 3.0911596 18.78143354 3.29101562 20.49462891 C5.0237059 35.3551001 5.23110309 50.04763004 5 65 C4.67 65 4.34 65 4 65 C3.41713157 58.75586687 2.84727462 52.51072167 2.29101562 46.26416016 C2.09873272 44.10742992 1.9047535 41.95085017 1.70898438 39.79443359 C0.51151808 26.49400441 -0.30704246 13.35634716 0 0 Z " fill="#2C281F" transform="translate(122,11)"/>
<path d="M0 0 C0.99386719 0.00902344 1.98773438 0.01804687 3.01171875 0.02734375 C4.15060547 0.04474609 4.15060547 0.04474609 5.3125 0.0625 C6.20854368 6.11079486 6.42519443 11.9519576 6.3125 18.0625 C3.8125 17.1875 3.8125 17.1875 1.3125 15.0625 C0.84190482 11.62438697 1.08568263 8.55548752 1.3125 5.0625 C-2.9775 4.7325 -7.2675 4.4025 -11.6875 4.0625 C-7.71549787 0.09049787 -5.38958784 -0.06340692 0 0 Z " fill="#191814" transform="translate(108.6875,12.9375)"/>
<path d="M0 0 C1.65 0 3.3 0 5 0 C5.70776992 7.35575165 6.14715692 14.6094524 6 22 C4.35 22 2.7 22 1 22 C0.67 14.74 0.34 7.48 0 0 Z " fill="#A19D88" transform="translate(97,64)"/>
<path d="M0 0 C0 2.31 0 4.62 0 7 C3.96 7 7.92 7 12 7 C12 8.32 12 9.64 12 11 C7.99047425 12.33650858 4.17983803 12.20225023 0 12 C-2 10 -2 10 -2.1953125 8.0546875 C-2.13020833 6.03645833 -2.06510417 4.01822917 -2 2 C-4.97 2 -7.94 2 -11 2 C-11 4.64 -11 7.28 -11 10 C-11.66 10 -12.32 10 -13 10 C-13 7.03 -13 4.06 -13 1 C-11.39796533 0.63631108 -9.79325797 0.28438048 -8.1875 -0.0625 C-7.29417969 -0.25972656 -6.40085937 -0.45695312 -5.48046875 -0.66015625 C-3 -1 -3 -1 0 0 Z " fill="#CDC9B6" transform="translate(62,30)"/>
<path d="M0 0 C0.33 0 0.66 0 1 0 C1 4.95 1 9.9 1 15 C-3.29 15 -7.58 15 -12 15 C-11.67 15.66 -11.34 16.32 -11 17 C-7.97065509 17.65772428 -7.97065509 17.65772428 -5 18 C-5 18.33 -5 18.66 -5 19 C-6.98 19 -8.96 19 -11 19 C-11.33 19.66 -11.66 20.32 -12 21 C-13.78136432 15.21056595 -14.31662455 10.92481047 -13 5 C-12.67 5 -12.34 5 -12 5 C-12 6.65 -12 8.3 -12 10 C-8.04 10 -4.08 10 0 10 C0 6.7 0 3.4 0 0 Z " fill="#B7B6AC" transform="translate(107,26)"/>
<path d="M0 0 C-1.32 0.33 -2.64 0.66 -4 1 C-3.34 15.85 -2.68 30.7 -2 46 C-2.99 45.34 -3.98 44.68 -5 44 C-4.505 41.03 -4.505 41.03 -4 38 C-4.66 38 -5.32 38 -6 38 C-6 37.34 -6 36.68 -6 36 C-5.34 36 -4.68 36 -4 36 C-4 35.34 -4 34.68 -4 34 C-4.66 33.67 -5.32 33.34 -6 33 C-5.34 33 -4.68 33 -4 33 C-4 32.01 -4 31.02 -4 30 C-4.66 29.67 -5.32 29.34 -6 29 C-6.02692484 26.70839681 -6.04636124 24.41670454 -6.0625 22.125 C-6.07410156 20.84882812 -6.08570312 19.57265625 -6.09765625 18.2578125 C-6 15 -6 15 -5 13 C-5.66 13 -6.32 13 -7 13 C-7 12.34 -7 11.68 -7 11 C-6.34 11 -5.68 11 -5 11 C-5 10.34 -5 9.68 -5 9 C-5.66 8.67 -6.32 8.34 -7 8 C-6.34 8 -5.68 8 -5 8 C-5.66 7.01 -6.32 6.02 -7 5 C-7.99 5.495 -7.99 5.495 -9 6 C-9.33 4.02 -9.66 2.04 -10 0 C-3.375 -1.125 -3.375 -1.125 0 0 Z " fill="#4F4E48" transform="translate(93,18)"/>
<path d="M0 0 C0.99 0 1.98 0 3 0 C3.33 1.98 3.66 3.96 4 6 C4.33 6 4.66 6 5 6 C5 10.62 5 15.24 5 20 C5.99 20.33 6.98 20.66 8 21 C7.67 21.66 7.34 22.32 7 23 C3.37 23 -0.26 23 -4 23 C-4 25.97 -4 28.94 -4 32 C-4.33 32 -4.66 32 -5 32 C-5 28.7 -5 25.4 -5 22 C-1.535 21.505 -1.535 21.505 2 21 C1.84402344 20.37351562 1.68804687 19.74703125 1.52734375 19.1015625 C1.23537109 17.87566406 1.23537109 17.87566406 0.9375 16.625 C0.64166016 15.40683594 0.64166016 15.40683594 0.33984375 14.1640625 C0 12 0 12 1 10 C0.64197439 7.80763733 0.64197439 7.80763733 0 5.4375 C-0.3760362 3.96860861 -0.72004242 2.49019089 -1 1 C-0.67 0.67 -0.34 0.34 0 0 Z " fill="#6A6965" transform="translate(93,66)"/>
<path d="M0 0 C0.66 0 1.32 0 2 0 C2.02691685 2.45840605 2.04679802 4.91651882 2.0625 7.375 C2.07087891 8.07367188 2.07925781 8.77234375 2.08789062 9.4921875 C2.11328125 14.7734375 2.11328125 14.7734375 1 17 C1.99 17.33 2.98 17.66 4 18 C3.34 18 2.68 18 2 18 C2 22.29 2 26.58 2 31 C1.34 31 0.68 31 0 31 C0.16371094 31.68449219 0.32742188 32.36898437 0.49609375 33.07421875 C1.06447034 36.3743278 1.09630767 39.46554069 1.0625 42.8125 C1.05347656 43.97394531 1.04445313 45.13539062 1.03515625 46.33203125 C1.02355469 47.21246094 1.01195312 48.09289062 1 49 C0.01 49.495 0.01 49.495 -1 50 C-1.02944154 45.89584883 -1.04694527 41.79172544 -1.0625 37.6875 C-1.07087891 36.53958984 -1.07925781 35.39167969 -1.08789062 34.20898438 C-1.10578989 27.89054493 -0.87222176 21.70730659 -0.22485352 15.42260742 C0.07304214 12.2130324 0.09714129 9.03414007 0.0625 5.8125 C0.05347656 4.70519531 0.04445313 3.59789062 0.03515625 2.45703125 C0.02355469 1.64621094 0.01195312 0.83539063 0 0 Z " fill="#7A7B77" transform="translate(11,43)"/>
<path d="M0 0 C2.31 0 4.62 0 7 0 C7 5.61 7 11.22 7 17 C6.34 16.67 5.68 16.34 5 16 C4.66666667 13.66666667 4.33333333 11.33333333 4 9 C3.34 8.67 2.68 8.34 2 8 C2 9.32 2 10.64 2 12 C2.66 12.33 3.32 12.66 4 13 C2.66666667 14.33333333 1.33333333 15.66666667 0 17 C0 11.39 0 5.78 0 0 Z " fill="#1D1F19" transform="translate(38,45)"/>
<path d="M0 0 C1.98 0.99 1.98 0.99 4 2 C3.86287598 2.94617188 3.72575195 3.89234375 3.58447266 4.8671875 C2.1454095 15.25545064 1.5916867 25.52229528 1.375 36 C1.33666782 37.56512222 1.29760834 39.13022681 1.2578125 40.6953125 C1.1635392 44.46339234 1.07893682 48.23156899 1 52 C0.67 52 0.34 52 0 52 C0 34.84 0 17.68 0 0 Z " fill="#C7C3B8" transform="translate(0,1)"/>
<path d="M0 0 C2.97 0 5.94 0 9 0 C9 0.99 9 1.98 9 3 C9.66 3.33 10.32 3.66 11 4 C10.01 4 9.02 4 8 4 C8 4.66 8 5.32 8 6 C7.01 6.495 7.01 6.495 6 7 C6.66 7.33 7.32 7.66 8 8 C8 8.66 8 9.32 8 10 C5.36 10 2.72 10 0 10 C0 6.7 0 3.4 0 0 Z " fill="#C3C1B4" transform="translate(94,18)"/>
<path d="M0 0 C0.99 0 1.98 0 3 0 C4.12513633 8.01659634 4.09579384 15.92138585 4 24 C3.01 24 2.02 24 1 24 C0.87625 23.360625 0.7525 22.72125 0.625 22.0625 C0.41875 21.381875 0.2125 20.70125 0 20 C-0.66 19.67 -1.32 19.34 -2 19 C-2 18.34 -2 17.68 -2 17 C-1.34 17 -0.68 17 0 17 C0 16.34 0 15.68 0 15 C-0.66 15 -1.32 15 -2 15 C-2 14.34 -2 13.68 -2 13 C-1.34 13 -0.68 13 0 13 C0 12.34 0 11.68 0 11 C0.66 11 1.32 11 2 11 C1.7215625 9.63875 1.7215625 9.63875 1.4375 8.25 C1.04265379 5.31685676 1.05308428 3.7355343 2 1 C1.34 0.67 0.68 0.34 0 0 Z " fill="#A7A7A0" transform="translate(82,45)"/>
<path d="M0 0 C4.62 0 9.24 0 14 0 C14 0.66 14 1.32 14 2 C14.66 2.33 15.32 2.66 16 3 C15.34 3 14.68 3 14 3 C14 3.66 14 4.32 14 5 C9.38 5 4.76 5 0 5 C0 3.35 0 1.7 0 0 Z " fill="#3F3F3C" transform="translate(86,98)"/>
<path d="M0 0 C3.07615395 2.67491648 3.82163258 4.15687002 4.2109375 8.1796875 C4.25 10.375 4.25 10.375 4 14 C3.67 14 3.34 14 3 14 C2.67 15.98 2.34 17.96 2 20 C1.67 20 1.34 20 1 20 C0.67 14.72 0.34 9.44 0 4 C-0.66 4 -1.32 4 -2 4 C-2 3.34 -2 2.68 -2 2 C-7.61 2 -13.22 2 -19 2 C-19 1.67 -19 1.34 -19 1 C-12.72126194 -0.44160779 -6.39629937 -0.802459 0 0 Z " fill="#454036" transform="translate(120,2)"/>
<path d="M0 0 C4.29 0 8.58 0 13 0 C13 2.31 13 4.62 13 7 C8.71 6.67 4.42 6.34 0 6 C0 5.34 0 4.68 0 4 C2.64 4 5.28 4 8 4 C8 3.34 8 2.68 8 2 C5.36 2 2.72 2 0 2 C0 1.34 0 0.68 0 0 Z " fill="#D5D2AC" transform="translate(96,49)"/>
<path d="M0 0 C0.33 0.99 0.66 1.98 1 3 C2.32 3.33 3.64 3.66 5 4 C5 7.63 5 11.26 5 15 C2.03 14.505 2.03 14.505 -1 14 C-1.027193 12.41676312 -1.04648306 10.83338938 -1.0625 9.25 C-1.07410156 8.36828125 -1.08570312 7.4865625 -1.09765625 6.578125 C-1.00826198 4.2181162 -0.66912821 2.25501476 0 0 Z " fill="#61AC69" transform="translate(19,28)"/>
<path d="M0 0 C11.55 0 23.1 0 35 0 C31.27590605 3.72409395 24.80872644 2.59114609 19.71435547 2.74291992 C17.50769 2.81225836 15.30322562 2.90815674 13.09765625 3.00585938 C11.70057545 3.05370557 10.30343984 3.09998254 8.90625 3.14453125 C6.99295898 3.21184448 6.99295898 3.21184448 5.04101562 3.28051758 C4.03748047 3.18794678 3.03394531 3.09537598 2 3 C1.34 2.01 0.68 1.02 0 0 Z " fill="#868075" transform="translate(2,1)"/>
<path d="M0 0 C0.33 0 0.66 0 1 0 C1 3.3 1 6.6 1 10 C-3.95 10 -8.9 10 -14 10 C-14 10.99 -14 11.98 -14 13 C-15.98 13 -17.96 13 -20 13 C-19.67 9.04 -19.34 5.08 -19 1 C-18.01 1.33 -17.02 1.66 -16 2 C-16 3.65 -16 5.3 -16 7 C-16.66 7 -17.32 7 -18 7 C-18 7.66 -18 8.32 -18 9 C-12.06 9 -6.12 9 0 9 C0 6.03 0 3.06 0 0 Z " fill="#6A8664" transform="translate(37,62)"/>
<path d="M0 0 C4.29 0 8.58 0 13 0 C13 2.31 13 4.62 13 7 C9.04 6.67 5.08 6.34 1 6 C1 5.34 1 4.68 1 4 C2.98 3.67 4.96 3.34 7 3 C4.69 2.67 2.38 2.34 0 2 C0 1.34 0 0.68 0 0 Z " fill="#D6D3AF" transform="translate(96,57)"/>
<path d="M0 0 C0.99 0 1.98 0 3 0 C3 3.3 3 6.6 3 10 C4.32 10.33 5.64 10.66 7 11 C0.25 11.125 0.25 11.125 -2 10 C-2 10.66 -2 11.32 -2 12 C-1.34 12.33 -0.68 12.66 0 13 C-2 14 -2 14 -3.9453125 13.44140625 C-4.66460938 13.15136719 -5.38390625 12.86132812 -6.125 12.5625 C-6.84945313 12.27503906 -7.57390625 11.98757812 -8.3203125 11.69140625 C-8.87460937 11.46324219 -9.42890625 11.23507813 -10 11 C-6.25 9.875 -6.25 9.875 -4 11 C-4 9.35 -4 7.7 -4 6 C-3.67 6.66 -3.34 7.32 -3 8 C-2.01 8 -1.02 8 0 8 C0 5.36 0 2.72 0 0 Z " fill="#27422A" transform="translate(29,32)"/>
<path d="M0 0 C0.33 2.97 0.66 5.94 1 9 C0.34 9 -0.32 9 -1 9 C-1 10.65 -1 12.3 -1 14 C-1.66 13.67 -2.32 13.34 -3 13 C-2.67 11.68 -2.34 10.36 -2 9 C-3.32 9 -4.64 9 -6 9 C-6 6.36 -6 3.72 -6 1 C-4 0 -4 0 0 0 Z " fill="#11110E" transform="translate(87,89)"/>
<path d="M0 0 C0.91007812 0.00902344 1.82015625 0.01804687 2.7578125 0.02734375 C3.45648438 0.03894531 4.15515625 0.05054687 4.875 0.0625 C4.875 0.3925 4.875 0.7225 4.875 1.0625 C2.895 1.0625 0.915 1.0625 -1.125 1.0625 C-1.125 4.3625 -1.125 7.6625 -1.125 11.0625 C-2.445 11.3925 -3.765 11.7225 -5.125 12.0625 C-5.125 11.0725 -5.125 10.0825 -5.125 9.0625 C-6.115 8.7325 -7.105 8.4025 -8.125 8.0625 C-7.135 8.0625 -6.145 8.0625 -5.125 8.0625 C-5.125 7.4025 -5.125 6.7425 -5.125 6.0625 C-6.115 5.7325 -7.105 5.4025 -8.125 5.0625 C-7.135 5.0625 -6.145 5.0625 -5.125 5.0625 C-5.125 4.4025 -5.125 3.7425 -5.125 3.0625 C-5.785 3.0625 -6.445 3.0625 -7.125 3.0625 C-7.125 2.4025 -7.125 1.7425 -7.125 1.0625 C-4.60024538 -0.19987731 -2.81299534 -0.03606404 0 0 Z " fill="#AD8D71" transform="translate(24.125,80.9375)"/>
<path d="M0 0 C2.97 0 5.94 0 9 0 C9 2.31 9 4.62 9 7 C6.03 7 3.06 7 0 7 C0 4.69 0 2.38 0 0 Z " fill="#767A7A" transform="translate(51,32)"/>
<path d="M0 0 C1.32 0.33 2.64 0.66 4 1 C3.835 1.5775 3.67 2.155 3.5 2.75 C2.85537969 5.26664369 2.85537969 5.26664369 3 9 C4.65 9 6.3 9 8 9 C8 9.33 8 9.66 8 10 C5.03 10 2.06 10 -1 10 C-1.33 12.64 -1.66 15.28 -2 18 C-2.33 18 -2.66 18 -3 18 C-2.98839844 17.15695313 -2.97679687 16.31390625 -2.96484375 15.4453125 C-2.95582031 14.34960938 -2.94679687 13.25390625 -2.9375 12.125 C-2.92589844 11.03445312 -2.91429687 9.94390625 -2.90234375 8.8203125 C-2.80255697 6.04822454 -2.80255697 6.04822454 -4 4 C-3.01 3.67 -2.02 3.34 -1 3 C-0.67 2.01 -0.34 1.02 0 0 Z " fill="#9A9279" transform="translate(49,21)"/>
<path d="M0 0 C2.5243635 2.5243635 2.46010689 3.86986324 2.8125 7.375 C2.97685547 8.80972656 2.97685547 8.80972656 3.14453125 10.2734375 C2.97370164 13.49611498 2.25209969 14.73177549 0 17 C-0.66 17 -1.32 17 -2 17 C-2 12.38 -2 7.76 -2 3 C-1.34 3 -0.68 3 0 3 C0 2.01 0 1.02 0 0 Z " fill="#50855B" transform="translate(21,45)"/>
<path d="M0 0 C3.96 0 7.92 0 12 0 C12 2.31 12 4.62 12 7 C11.01 6.67 10.02 6.34 9 6 C9.33 5.67 9.66 5.34 10 5 C9.01 4.67 8.02 4.34 7 4 C7 5.32 7 6.64 7 8 C5.68 8 4.36 8 3 8 C3.33 5.69 3.66 3.38 4 1 C2.68 0.67 1.36 0.34 0 0 Z " fill="#8C8B86" transform="translate(62,27)"/>
<path d="M0 0 C1.65 0.33 3.3 0.66 5 1 C5 1.66 5 2.32 5 3 C4.34 3 3.68 3 3 3 C3 3.66 3 4.32 3 5 C3.66 5 4.32 5 5 5 C5 6.65 5 8.3 5 10 C3.35 10.33 1.7 10.66 0 11 C0 9.35 0 7.7 0 6 C-1.32 5.67 -2.64 5.34 -4 5 C-3.67 4.34 -3.34 3.68 -3 3 C-2.01 3 -1.02 3 0 3 C0 2.01 0 1.02 0 0 Z " fill="#1B1412" transform="translate(77,59)"/>
<path d="M0 0 C0.66 0 1.32 0 2 0 C1.67 4.62 1.34 9.24 1 14 C-0.65 14 -2.3 14 -4 14 C-4 10.37 -4 6.74 -4 3 C-2.68 3 -1.36 3 0 3 C0 2.01 0 1.02 0 0 Z " fill="#68AA6E" transform="translate(36,28)"/>
<path d="M0 0 C1.65 0 3.3 0 5 0 C5 0.66 5 1.32 5 2 C6.65 2.33 8.3 2.66 10 3 C9.34 5.31 8.68 7.62 8 10 C6.35 10 4.7 10 3 10 C2.61936779 7.6739143 2.28730055 5.33944736 2 3 C2.33 2.67 2.66 2.34 3 2 C2.01 1.34 1.02 0.68 0 0 Z " fill="#383832" transform="translate(49,20)"/>
<path d="M0 0 C2 2 2 2 2.22705078 4.24658203 C2.21657715 5.15778809 2.20610352 6.06899414 2.1953125 7.0078125 C2.18886719 7.99394531 2.18242188 8.98007812 2.17578125 9.99609375 C2.15902344 11.02863281 2.14226562 12.06117187 2.125 13.125 C2.11597656 14.16527344 2.10695313 15.20554687 2.09765625 16.27734375 C2.07403747 18.85179092 2.04110149 21.42578212 2 24 C1.34 23.67 0.68 23.34 0 23 C-0.125 16.375 -0.125 16.375 1 13 C0.34 13 -0.32 13 -1 13 C-1 12.34 -1 11.68 -1 11 C-1.66 10.67 -2.32 10.34 -3 10 C-2.34 10 -1.68 10 -1 10 C-1 9.34 -1 8.68 -1 8 C-1.66 8 -2.32 8 -3 8 C-3 7.34 -3 6.68 -3 6 C-2.34 6 -1.68 6 -1 6 C-0.67 4.02 -0.34 2.04 0 0 Z " fill="#ACABA2" transform="translate(82,18)"/>
<path d="M0 0 C1.32 0 2.64 0 4 0 C4 3.3 4 6.6 4 10 C2.02 10.33 0.04 10.66 -2 11 C-1.67 10.01 -1.34 9.02 -1 8 C-2.98 8 -4.96 8 -7 8 C-3.25 6 -3.25 6 -1 6 C-0.67 4.02 -0.34 2.04 0 0 Z " fill="#D5D2AA" transform="translate(103,18)"/>
<path d="M0 0 C0.99 0 1.98 0 3 0 C3.06058594 0.67546875 3.12117188 1.3509375 3.18359375 2.046875 C3.26738281 2.93890625 3.35117188 3.8309375 3.4375 4.75 C3.55931641 6.07257812 3.55931641 6.07257812 3.68359375 7.421875 C3.96238465 9.69350452 4.38790577 11.79851823 5 14 C3.35 14 1.7 14 0 14 C-0.77916092 8.97874074 -1.13016601 5.02296004 0 0 Z " fill="#7F7E74" transform="translate(91,50)"/>
<path d="M0 0 C0.99 0 1.98 0 3 0 C3 1.65 3 3.3 3 5 C4.32 5 5.64 5 7 5 C7 3.68 7 2.36 7 1 C8.32 1.33 9.64 1.66 11 2 C11.33 3.65 11.66 5.3 12 7 C8.04 7 4.08 7 0 7 C0 4.69 0 2.38 0 0 Z " fill="#6A6D6E" transform="translate(62,30)"/>
<path d="M0 0 C0.99 0.33 1.98 0.66 3 1 C2.34 1 1.68 1 1 1 C1.33 2.98 1.66 4.96 2 7 C2.66 6.34 3.32 5.68 4 5 C4 7.97 4 10.94 4 14 C5.65 14.33 7.3 14.66 9 15 C5.28732913 17.33760758 4.80554252 16.9611085 0 16 C0 10.72 0 5.44 0 0 Z " fill="#91886F" transform="translate(45,26)"/>
<path d="M0 0 C0 1.98 0 3.96 0 6 C-0.66 6 -1.32 6 -2 6 C-2 6.99 -2 7.98 -2 9 C-3.32 9 -4.64 9 -6 9 C-6 6.69 -6 4.38 -6 2 C-6.99 1.67 -7.98 1.34 -9 1 C-5.92677456 0.08941469 -3.19902639 -0.08886184 0 0 Z " fill="#4F5048" transform="translate(32,15)"/>
<path d="M0 0 C0 0.66 0 1.32 0 2 C-0.66 2 -1.32 2 -2 2 C-2 2.66 -2 3.32 -2 4 C-1.34 4 -0.68 4 0 4 C0 6.31 0 8.62 0 11 C-1.98 11 -3.96 11 -6 11 C-6.36476427 4.67741935 -6.36476427 4.67741935 -4.6875 1.5625 C-3 0 -3 0 0 0 Z " fill="#1E1D16" transform="translate(19,80)"/>
<path d="M0 0 C2.97 0 5.94 0 9 0 C8.01 0.495 8.01 0.495 7 1 C7 1.99 7 2.98 7 4 C5.68 4 4.36 4 3 4 C3 5.65 3 7.3 3 9 C1.68 9 0.36 9 -1 9 C-1 7.02 -1 5.04 -1 3 C-0.34 2.67 0.32 2.34 1 2 C0.67 1.34 0.34 0.68 0 0 Z " fill="#8C8D83" transform="translate(51,39)"/>
<path d="M0 0 C1.65 0 3.3 0 5 0 C5 7.59 5 15.18 5 23 C4.67 23 4.34 23 4 23 C3.87882812 21.75863281 3.75765625 20.51726563 3.6328125 19.23828125 C3.46392452 17.59631474 3.2946324 15.95438977 3.125 14.3125 C3.04636719 13.49587891 2.96773438 12.67925781 2.88671875 11.83789062 C2.43785829 7.57371628 1.89557813 3.91062546 0 0 Z " fill="#6C6459" transform="translate(122,1)"/>
<path d="M0 0 C0.99 0 1.98 0 3 0 C3 6.27 3 12.54 3 19 C2.34 18.67 1.68 18.34 1 18 C-0.27536232 12.55072464 -0.27536232 12.55072464 1 10 C0.64197439 7.80763733 0.64197439 7.80763733 0 5.4375 C-0.3760362 3.96860861 -0.72004242 2.49019089 -1 1 C-0.67 0.67 -0.34 0.34 0 0 Z " fill="#6F6F6D" transform="translate(93,66)"/>
<path d="M0 0 C0.99 0 1.98 0 3 0 C3 4.95 3 9.9 3 15 C1.68 15 0.36 15 -1 15 C-1 12.03 -1 9.06 -1 6 C-0.01 6 0.98 6 2 6 C2 4.68 2 3.36 2 2 C1.34 2 0.68 2 0 2 C0 1.34 0 0.68 0 0 Z " fill="#B79F9B" transform="translate(67,51)"/>
<path d="M0 0 C1.65 0 3.3 0 5 0 C5 1.98 5 3.96 5 6 C4.01 6 3.02 6 2 6 C2.01160156 6.7734375 2.02320313 7.546875 2.03515625 8.34375 C2.08709845 14.33936364 1.91184156 20.07302983 1 26 C0.67 26 0.34 26 0 26 C0 17.42 0 8.84 0 0 Z " fill="#575651" transform="translate(12,15)"/>
<path d="M0 0 C0.66 0 1.32 0 2 0 C2 2.31 2 4.62 2 7 C3.32 7 4.64 7 6 7 C6 7.99 6 8.98 6 10 C3.03 10 0.06 10 -3 10 C-3 9.34 -3 8.68 -3 8 C-3.66 7.67 -4.32 7.34 -5 7 C-3.68 6.67 -2.36 6.34 -1 6 C-0.67 4.02 -0.34 2.04 0 0 Z " fill="#126B3F" transform="translate(30,61)"/>
<path d="M0 0 C0.99 0 1.98 0 3 0 C3 0.66 3 1.32 3 2 C4.65 2.33 6.3 2.66 8 3 C7.67 4.32 7.34 5.64 7 7 C4.03 7 1.06 7 -2 7 C-2 6.34 -2 5.68 -2 5 C-2.66 4.67 -3.32 4.34 -4 4 C-1.69 4.33 0.62 4.66 3 5 C3 4.34 3 3.68 3 3 C2.01 3 1.02 3 0 3 C0 2.01 0 1.02 0 0 Z " fill="#69685F" transform="translate(62,18)"/>
<path d="M0 0 C1.32 0 2.64 0 4 0 C4 3.3 4 6.6 4 10 C2.68 10 1.36 10 0 10 C0 6.7 0 3.4 0 0 Z " fill="#9D9D96" transform="translate(51,57)"/>
<path d="M0 0 C1.50433594 0.01353516 1.50433594 0.01353516 3.0390625 0.02734375 C3.80992188 0.03894531 4.58078125 0.05054688 5.375 0.0625 C4.055 1.0525 2.735 2.0425 1.375 3.0625 C4.015 3.3925 6.655 3.7225 9.375 4.0625 C9.375 4.3925 9.375 4.7225 9.375 5.0625 C7.58341511 5.08946365 5.79171527 5.10887917 4 5.125 C3.00226563 5.13660156 2.00453125 5.14820313 0.9765625 5.16015625 C-1.625 5.0625 -1.625 5.0625 -3.625 4.0625 C-3.625 3.4025 -3.625 2.7425 -3.625 2.0625 C-4.945 1.7325 -6.265 1.4025 -7.625 1.0625 C-4.98041621 -0.25979189 -2.94738699 -0.03427194 0 0 Z " fill="#4C4C48" transform="translate(97.625,12.9375)"/>
<path d="M0 0 C4.29 0 8.58 0 13 0 C13 0.99 13 1.98 13 3 C8.71 3 4.42 3 0 3 C0 2.01 0 1.02 0 0 Z " fill="#C8C6B7" transform="translate(23,72)"/>
<path d="M0 0 C0.33 0.66 0.66 1.32 1 2 C1.66 2 2.32 2 3 2 C3.19491452 3.45736087 3.38069358 4.91594593 3.5625 6.375 C3.66691406 7.18710937 3.77132812 7.99921875 3.87890625 8.8359375 C4 11 4 11 3 13 C2.01 13 1.02 13 0 13 C0 8.71 0 4.42 0 0 Z " fill="#6C695C" transform="translate(109,51)"/>
<path d="M0 0 C2.35953094 2.35953094 2.49141413 3.77895617 3 7 C3.33 6.01 3.66 5.02 4 4 C5.125 5.75 5.125 5.75 6 8 C5.125 10.25 5.125 10.25 4 12 C4 11.34 4 10.68 4 10 C3.01 10 2.02 10 1 10 C1.20625 10.61875 1.4125 11.2375 1.625 11.875 C1.74875 12.57625 1.8725 13.2775 2 14 C1.34 14.66 0.68 15.32 0 16 C0 10.72 0 5.44 0 0 Z " fill="#8F8E83" transform="translate(90,40)"/>
<path d="M0 0 C0 1.65 0 3.3 0 5 C-0.33 4.01 -0.66 3.02 -1 2 C-4.3 2 -7.6 2 -11 2 C-11 4.64 -11 7.28 -11 10 C-11.66 10 -12.32 10 -13 10 C-13 7.03 -13 4.06 -13 1 C-11.39796533 0.63631108 -9.79325797 0.28438048 -8.1875 -0.0625 C-7.29417969 -0.25972656 -6.40085937 -0.45695312 -5.48046875 -0.66015625 C-3 -1 -3 -1 0 0 Z " fill="#CBC7B4" transform="translate(62,30)"/>
<path d="M0 0 C9.24 0 18.48 0 28 0 C28 0.33 28 0.66 28 1 C20.08 1.33 12.16 1.66 4 2 C4.33 2.66 4.66 3.32 5 4 C3.35 3.67 1.7 3.34 0 3 C0 2.01 0 1.02 0 0 Z " fill="#797569" transform="translate(5,3)"/>
<path d="M0 0 C2.475 0.495 2.475 0.495 5 1 C5 5.62 5 10.24 5 15 C4.34 14.67 3.68 14.34 3 14 C2.64820803 11.6693782 2.31669821 9.33564933 2 7 C1.36345658 5.6520257 0.70394612 4.31403276 0 3 C0 2.01 0 1.02 0 0 Z " fill="#21211C" transform="translate(112,53)"/>
<path d="M0 0 C1.32 0.33 2.64 0.66 4 1 C3.01 1 2.02 1 1 1 C1.33 4.3 1.66 7.6 2 11 C0.35 11.33 -1.3 11.66 -3 12 C-3.33 9.69 -3.66 7.38 -4 5 C-2.68 5 -1.36 5 0 5 C0 3.35 0 1.7 0 0 Z " fill="#584740" transform="translate(54,43)"/>
<path d="M0 0 C4.29 0 8.58 0 13 0 C13 0.99 13 1.98 13 3 C9.04 3 5.08 3 1 3 C0.67 2.01 0.34 1.02 0 0 Z " fill="#D4D2BB" transform="translate(95,41)"/>
<path d="M0 0 C2.64 0 5.28 0 8 0 C7.67 1.65 7.34 3.3 7 5 C4.69 5 2.38 5 0 5 C0 3.35 0 1.7 0 0 Z " fill="#1C1D18" transform="translate(100,98)"/>
<path d="M0 0 C0.33 0.66 0.66 1.32 1 2 C1.66 2 2.32 2 3 2 C3 4.31 3 6.62 3 9 C0.36 8.34 -2.28 7.68 -5 7 C-5 6.34 -5 5.68 -5 5 C-3.35 4.67 -1.7 4.34 0 4 C0 2.68 0 1.36 0 0 Z " fill="#2F6244" transform="translate(33,52)"/>
<path d="M0 0 C0.66 0.33 1.32 0.66 2 1 C2.6328125 3.94140625 2.6328125 3.94140625 3.125 7.5625 C3.29257813 8.76003906 3.46015625 9.95757812 3.6328125 11.19140625 C3.75398438 12.11824219 3.87515625 13.04507813 4 14 C3.67 13.34 3.34 12.68 3 12 C2.01 11.67 1.02 11.34 0 11 C-1.125 3.375 -1.125 3.375 0 0 Z " fill="#0E0E0C" transform="translate(112,42)"/>
<path d="M0 0 C1.32 0 2.64 0 4 0 C4 1.32 4 2.64 4 4 C5.32 4 6.64 4 8 4 C8 4.99 8 5.98 8 7 C6.02 7.33 4.04 7.66 2 8 C0 1.125 0 1.125 0 0 Z " fill="#2E6846" transform="translate(28,24)"/>
<path d="M0 0 C1.32 1.32 2.64 2.64 4 4 C3.01 4.495 3.01 4.495 2 5 C2.185625 5.598125 2.37125 6.19625 2.5625 6.8125 C3 9 3 9 2 12 C1.34 11.67 0.68 11.34 0 11 C0 9.35 0 7.7 0 6 C-0.66 7.32 -1.32 8.64 -2 10 C-2 7.03 -2 4.06 -2 1 C-1.34 0.67 -0.68 0.34 0 0 Z " fill="#737266" transform="translate(91,35)"/>
<path d="M0 0 C3.96 0 7.92 0 12 0 C12 1.32 12 2.64 12 4 C11.34 4 10.68 4 10 4 C9.67 4.66 9.34 5.32 9 6 C9 5.34 9 4.68 9 4 C8.34 4 7.68 4 7 4 C7 3.34 7 2.68 7 2 C5.02 2 3.04 2 1 2 C0.67 1.34 0.34 0.68 0 0 Z " fill="#B92A43" transform="translate(69,20)"/>
<path d="M0 0 C1.98 0.66 3.96 1.32 6 2 C6 4.31 6 6.62 6 9 C4.68 9 3.36 9 2 9 C2 6.69 2 4.38 2 2 C1.34 2 0.68 2 0 2 C0 1.34 0 0.68 0 0 Z " fill="#65975B" transform="translate(30,59)"/>
<path d="M0 0 C2.64 0 5.28 0 8 0 C8 0.66 8 1.32 8 2 C7.34 2 6.68 2 6 2 C6 3.32 6 4.64 6 6 C3.69 5.67 1.38 5.34 -1 5 C-0.01 4.34 0.98 3.68 2 3 C1.34 2.67 0.68 2.34 0 2 C0 1.34 0 0.68 0 0 Z " fill="#12120F" transform="translate(73,44)"/>
<path d="M0 0 C0.33 0.66 0.66 1.32 1 2 C1.66 2 2.32 2 3 2 C3 2.66 3 3.32 3 4 C2.34 4 1.68 4 1 4 C1 4.66 1 5.32 1 6 C-2.375 6.625 -2.375 6.625 -6 7 C-6.66 6.34 -7.32 5.68 -8 5 C-7.360625 4.71125 -6.72125 4.4225 -6.0625 4.125 C-3.84793921 3.17176549 -3.84793921 3.17176549 -3 1 C-2.01 0.67 -1.02 0.34 0 0 Z " fill="#21221F" transform="translate(78,38)"/>
<path d="M0 0 C0.90105469 0.00902344 1.80210938 0.01804687 2.73046875 0.02734375 C3.41753906 0.03894531 4.10460937 0.05054688 4.8125 0.0625 C3.8225 1.5475 3.8225 1.5475 2.8125 3.0625 C-0.0078125 3.35546875 -0.0078125 3.35546875 -3.3125 3.25 C-4.95605469 3.20939453 -4.95605469 3.20939453 -6.6328125 3.16796875 C-7.47585937 3.13316406 -8.31890625 3.09835938 -9.1875 3.0625 C-7.31499103 -0.68251794 -3.72136574 -0.04832943 0 0 Z " fill="#2B2924" transform="translate(108.1875,12.9375)"/>
<path d="M0 0 C0.33 0.99 0.66 1.98 1 3 C1.66 3.33 2.32 3.66 3 4 C2.01 4.66 1.02 5.32 0 6 C0 6.66 0 7.32 0 8 C-2.64 8 -5.28 8 -8 8 C-8 7.34 -8 6.68 -8 6 C-6.68 6.33 -5.36 6.66 -4 7 C-3.8453125 6.0409375 -3.8453125 6.0409375 -3.6875 5.0625 C-3.460625 4.381875 -3.23375 3.70125 -3 3 C-2.01 2.67 -1.02 2.34 0 2 C0 1.34 0 0.68 0 0 Z " fill="#2F6E4B" transform="translate(27,63)"/>
<path d="M0 0 C0.33 0.66 0.66 1.32 1 2 C1.66 2 2.32 2 3 2 C3 2.66 3 3.32 3 4 C2.34 4 1.68 4 1 4 C1 4.66 1 5.32 1 6 C1.66 6 2.32 6 3 6 C3 6.66 3 7.32 3 8 C1.5199159 7.88637738 0.04089926 7.75877092 -1.4375 7.625 C-2.26121094 7.55539063 -3.08492188 7.48578125 -3.93359375 7.4140625 C-4.61550781 7.27742188 -5.29742187 7.14078125 -6 7 C-6.33 6.34 -6.66 5.68 -7 5 C-3.535 4.505 -3.535 4.505 0 4 C0 2.68 0 1.36 0 0 Z " fill="#242422" transform="translate(79,46)"/>
<path d="M0 0 C0.99 0 1.98 0 3 0 C3 1.32 3 2.64 3 4 C3.66 4 4.32 4 5 4 C5.33 3.34 5.66 2.68 6 2 C6 4.31 6 6.62 6 9 C5.38125 8.67 4.7625 8.34 4.125 8 C2.08981656 6.85806765 2.08981656 6.85806765 0 7 C0 4.69 0 2.38 0 0 Z " fill="#262A25" transform="translate(13,44)"/>
<path d="M0 0 C0.66 0.33 1.32 0.66 2 1 C2 4.3 2 7.6 2 11 C1.34 11 0.68 11 0 11 C0 10.34 0 9.68 0 9 C-0.99 8.67 -1.98 8.34 -3 8 C-2.01 8 -1.02 8 0 8 C0 7.34 0 6.68 0 6 C-0.99 5.67 -1.98 5.34 -3 5 C-2.01 5 -1.02 5 0 5 C0 4.34 0 3.68 0 3 C-0.66 3 -1.32 3 -2 3 C-2 2.34 -2 1.68 -2 1 C-1.34 0.67 -0.68 0.34 0 0 Z " fill="#726F5B" transform="translate(19,81)"/>
<path d="M0 0 C1.32 0 2.64 0 4 0 C3.67 2.64 3.34 5.28 3 8 C1.35 7.67 -0.3 7.34 -2 7 C-2 5.68 -2 4.36 -2 3 C-1.34 2.67 -0.68 2.34 0 2 C0 1.34 0 0.68 0 0 Z " fill="#222320" transform="translate(15,30)"/>
<path d="M0 0 C0 0.66 0 1.32 0 2 C-0.99 2.495 -0.99 2.495 -2 3 C-1.34 3.33 -0.68 3.66 0 4 C0 4.66 0 5.32 0 6 C-2.64 6 -5.28 6 -8 6 C-7.67 4.35 -7.34 2.7 -7 1 C-2.25 0 -2.25 0 0 0 Z " fill="#DDDDD7" transform="translate(102,22)"/>
<path d="M0 0 C1.98 0 3.96 0 6 0 C6 1.65 6 3.3 6 5 C4.02 5 2.04 5 0 5 C0 3.35 0 1.7 0 0 Z " fill="#3F3F3D" transform="translate(86,98)"/>
<path d="M0 0 C0.66 0 1.32 0 2 0 C2.19573608 1.43640171 2.38127816 2.87419504 2.5625 4.3125 C2.66691406 5.11300781 2.77132812 5.91351563 2.87890625 6.73828125 C3 9 3 9 2 12 C2.66 12.33 3.32 12.66 4 13 C3.34 13 2.68 13 2 13 C2 14.65 2 16.3 2 18 C1.67 18 1.34 18 1 18 C0.67 12.06 0.34 6.12 0 0 Z " fill="#D3D3C3" transform="translate(97,65)"/>
<path d="M0 0 C1.32 0 2.64 0 4 0 C4 1.32 4 2.64 4 4 C3.01 4 2.02 4 1 4 C1 4.66 1 5.32 1 6 C1.66 6 2.32 6 3 6 C3 7.32 3 8.64 3 10 C2.01 10 1.02 10 0 10 C0 6.7 0 3.4 0 0 Z " fill="#C73147" transform="translate(66,47)"/>
<path d="M0 0 C1.38226016 2.76452033 1.09525387 5.0461363 1.0625 8.125 C1.05347656 9.22070312 1.04445313 10.31640625 1.03515625 11.4453125 C1.02355469 12.28835937 1.01195313 13.13140625 1 14 C0.34 14 -0.32 14 -1 14 C-2.32229189 11.35541621 -2.09677194 9.32238699 -2.0625 6.375 C-2.05347656 5.37210938 -2.04445313 4.36921875 -2.03515625 3.3359375 C-2.02355469 2.56507812 -2.01195313 1.79421875 -2 1 C-1.34 0.67 -0.68 0.34 0 0 Z " fill="#6A695C" transform="translate(111,39)"/>
<path d="M0 0 C3.96 0 7.92 0 12 0 C12 0.99 12 1.98 12 3 C8.37 3 4.74 3 1 3 C0.67 2.01 0.34 1.02 0 0 Z " fill="#DDDBC0" transform="translate(95,37)"/>
<path d="M0 0 C0.66 0.33 1.32 0.66 2 1 C2 2.65 2 4.3 2 6 C2.66 6.33 3.32 6.66 4 7 C3.34 7 2.68 7 2 7 C2 7.66 2 8.32 2 9 C0.68 9 -0.64 9 -2 9 C-1.51421457 5.87709365 -1.0013988 3.00419641 0 0 Z " fill="#252520" transform="translate(38,81)"/>
<path d="M0 0 C1.65 0 3.3 0 5 0 C5 3.3 5 6.6 5 10 C4.01 9.67 3.02 9.34 2 9 C2 6.36 2 3.72 2 1 C1.34 0.67 0.68 0.34 0 0 Z " fill="#999782" transform="translate(97,64)"/>
<path d="M0 0 C0 4.62 0 9.24 0 14 C-0.33 14 -0.66 14 -1 14 C-1.66 10.7 -2.32 7.4 -3 4 C-3.66 4.66 -4.32 5.32 -5 6 C-4.67 4.35 -4.34 2.7 -4 1 C-1 0 -1 0 0 0 Z " fill="#21211E" transform="translate(116,39)"/>
<path d="M0 0 C2.64 0.66 5.28 1.32 8 2 C7.67 3.32 7.34 4.64 7 6 C6.34 6 5.68 6 5 6 C4.67 6.66 4.34 7.32 4 8 C3.67 6.68 3.34 5.36 3 4 C2.01 4.33 1.02 4.66 0 5 C0 3.35 0 1.7 0 0 Z " fill="#358254" transform="translate(19,43)"/>
<path d="M0 0 C0.99 0 1.98 0 3 0 C3 2.97 3 5.94 3 9 C2.01 9.33 1.02 9.66 0 10 C0 6.7 0 3.4 0 0 Z " fill="#74836D" transform="translate(18,32)"/>
<path d="M0 0 C0.4125 0.639375 0.825 1.27875 1.25 1.9375 C3.17810487 4.20990931 4.11424181 4.60196439 7 5 C7 5.66 7 6.32 7 7 C4.03 7 1.06 7 -2 7 C-1.125 2.25 -1.125 2.25 0 0 Z " fill="#504F46" transform="translate(59,23)"/>
<path d="M0 0 C3.63 0 7.26 0 11 0 C11 0.66 11 1.32 11 2 C7.32589215 3.17571451 3.83070817 3.07366746 0 3 C0 2.01 0 1.02 0 0 Z " fill="#333330" transform="translate(83,15)"/>
<path d="M0 0 C0.66 0 1.32 0 2 0 C3.60725635 3.21451269 3.05748185 6.43612536 3 10 C2.67 10 2.34 10 2 10 C1.67 11.98 1.34 13.96 1 16 C0.67 16 0.34 16 0 16 C0 10.72 0 5.44 0 0 Z " fill="#3C372D" transform="translate(121,6)"/>
<path d="M0 0 C1.65 0.33 3.3 0.66 5 1 C5.33 2.65 5.66 4.3 6 6 C3.03 5.505 3.03 5.505 0 5 C-0.33 4.01 -0.66 3.02 -1 2 C-0.67 1.34 -0.34 0.68 0 0 Z " fill="#1F6E45" transform="translate(24,49)"/>
<path d="M0 0 C3.63 0 7.26 0 11 0 C11 0.99 11 1.98 11 3 C7.37 2.67 3.74 2.34 0 2 C0 1.34 0 0.68 0 0 Z " fill="#DCDCC3" transform="translate(96,45)"/>
<path d="M0 0 C3.3 0 6.6 0 10 0 C10 1.32 10 2.64 10 4 C8.35 4 6.7 4 5 4 C5 3.34 5 2.68 5 2 C3.35 1.67 1.7 1.34 0 1 C0 0.67 0 0.34 0 0 Z " fill="#22231F" transform="translate(52,17)"/>
<path d="M0 0 C3.3 0 6.6 0 10 0 C9.67 0.99 9.34 1.98 9 3 C5.7 3.33 2.4 3.66 -1 4 C-0.67 2.68 -0.34 1.36 0 0 Z " fill="#3A3935" transform="translate(17,15)"/>
<path d="M0 0 C0 0.33 0 0.66 0 1 C-2.31 1 -4.62 1 -7 1 C-6.67 1.66 -6.34 2.32 -6 3 C-2.97065509 3.65772428 -2.97065509 3.65772428 0 4 C0 4.33 0 4.66 0 5 C-1.98 5 -3.96 5 -6 5 C-6.33 5.66 -6.66 6.32 -7 7 C-7.66 4.69 -8.32 2.38 -9 0 C-5.93109813 -1.53445094 -3.29905734 -0.54984289 0 0 Z " fill="#AEA399" transform="translate(102,40)"/>
<path d="M0 0 C0.99 0 1.98 0 3 0 C3 3.3 3 6.6 3 10 C2.01 10 1.02 10 0 10 C0 6.7 0 3.4 0 0 Z " fill="#9DB39D" transform="translate(34,32)"/>
<path d="M0 0 C0.99 0.33 1.98 0.66 3 1 C3 2.65 3 4.3 3 6 C2.01 6 1.02 6 0 6 C0 7.98 0 9.96 0 12 C-0.33 12 -0.66 12 -1 12 C-1.02712066 10.56260487 -1.04645067 9.12506137 -1.0625 7.6875 C-1.07410156 6.88699219 -1.08570312 6.08648437 -1.09765625 5.26171875 C-1 3 -1 3 0 0 Z " fill="#272E25" transform="translate(26,24)"/>
<path d="M0 0 C0.33 0 0.66 0 1 0 C1 2.97 1 5.94 1 9 C3.51083114 7.74458443 3.87125446 6.49936512 5 4 C5.33 5.65 5.66 7.3 6 9 C4.125 10.0625 4.125 10.0625 2 11 C1.34 10.67 0.68 10.34 0 10 C0 6.7 0 3.4 0 0 Z " fill="#436146" transform="translate(18,53)"/>
<path d="M0 0 C0 3 0 3 -1.375 4.6875 C-3 6 -3 6 -5 6 C-5.33 4.02 -5.66 2.04 -6 0 C-3 -1 -3 -1 0 0 Z " fill="#33312E" transform="translate(76,47)"/>
<path d="M0 0 C2.31 0 4.62 0 7 0 C7 1.98 7 3.96 7 6 C6.34 6 5.68 6 5 6 C5 5.34 5 4.68 5 4 C3.68 3.67 2.36 3.34 1 3 C1.66 2.67 2.32 2.34 3 2 C2.01 1.34 1.02 0.68 0 0 Z " fill="#494F55" transform="translate(52,33)"/>
<path d="M0 0 C2.64 0 5.28 0 8 0 C6.68 0.33 5.36 0.66 4 1 C4 2.32 4 3.64 4 5 C2.68 5 1.36 5 0 5 C0 3.35 0 1.7 0 0 Z " fill="#ACAA9C" transform="translate(65,30)"/>
<path d="M0 0 C2.31 0 4.62 0 7 0 C7 0.99 7 1.98 7 3 C4.36 3 1.72 3 -1 3 C-0.67 2.01 -0.34 1.02 0 0 Z " fill="#1F1F1D" transform="translate(33,100)"/>
<path d="M0 0 C2.97 0 5.94 0 9 0 C8.01 0.495 8.01 0.495 7 1 C7 1.99 7 2.98 7 4 C5.68 4 4.36 4 3 4 C3 3.34 3 2.68 3 2 C2.01 1.67 1.02 1.34 0 1 C0 0.67 0 0.34 0 0 Z " fill="#9C9787" transform="translate(51,39)"/>
<path d="M0 0 C2 3 2 3 2 6 C3.65 6 5.3 6 7 6 C5.35 7.32 3.7 8.64 2 10 C0 8 0 8 -0.1953125 6.0546875 C-0.13020833 4.03645833 -0.06510417 2.01822917 0 0 Z " fill="#DCD9C5" transform="translate(60,32)"/>
<path d="M0 0 C0.33 0 0.66 0 1 0 C1 1.65 1 3.3 1 5 C2.98 5 4.96 5 7 5 C7 5.66 7 6.32 7 7 C4.33333333 7 1.66666667 7 -1 7 C-1.04254356 5.00045254 -1.04080783 2.99958364 -1 1 C-0.67 0.67 -0.34 0.34 0 0 Z " fill="#B3A69A" transform="translate(94,31)"/>
<path d="M0 0 C1.65 0 3.3 0 5 0 C5 0.99 5 1.98 5 3 C4.34 3 3.68 3 3 3 C3 3.99 3 4.98 3 6 C2.01 5.67 1.02 5.34 0 5 C0 3.35 0 1.7 0 0 Z " fill="#8F8E85" transform="translate(27,18)"/>
<path d="M0 0 C3.96 0 7.92 0 12 0 C11.67 0.99 11.34 1.98 11 3 C9.54077307 2.88590407 8.08259402 2.75834456 6.625 2.625 C5.40683594 2.52058594 5.40683594 2.52058594 4.1640625 2.4140625 C2 2 2 2 0 0 Z " fill="#34342F" transform="translate(53,15)"/>
<path d="M0 0 C5.28 0 10.56 0 16 0 C16 0.33 16 0.66 16 1 C11.38 1.66 6.76 2.32 2 3 C1.34 2.01 0.68 1.02 0 0 Z " fill="#8E877C" transform="translate(2,1)"/>
<path d="M0 0 C0.66 0 1.32 0 2 0 C2 2.64 2 5.28 2 8 C-0.31 8 -2.62 8 -5 8 C-4.0409375 7.690625 -4.0409375 7.690625 -3.0625 7.375 C-0.65074923 6.10461791 -0.65074923 6.10461791 -0.25 2.875 C-0.1675 1.92625 -0.085 0.9775 0 0 Z " fill="#163C23" transform="translate(30,61)"/>
<path d="M0 0 C1.98 0 3.96 0 6 0 C5.67 1.98 5.34 3.96 5 6 C4.34 6 3.68 6 3 6 C3 4.68 3 3.36 3 2 C2.01 2 1.02 2 0 2 C0 1.34 0 0.68 0 0 Z " fill="#10130E" transform="translate(13,42)"/>
<path d="M0 0 C1.485 0.99 1.485 0.99 3 2 C3 2.66 3 3.32 3 4 C2.01 4.495 2.01 4.495 1 5 C0.53348793 7.12576782 0.53348793 7.12576782 0.375 9.5625 C0.30023438 10.38878906 0.22546875 11.21507812 0.1484375 12.06640625 C0.09945312 12.70449219 0.05046875 13.34257813 0 14 C-0.33 14 -0.66 14 -1 14 C-1.02694851 12.04174127 -1.04637218 10.08337774 -1.0625 8.125 C-1.07410156 7.03445312 -1.08570312 5.94390625 -1.09765625 4.8203125 C-1 2 -1 2 0 0 Z " fill="#2A2B27" transform="translate(85,22)"/>
<path d="M0 0 C0.33 0 0.66 0 1 0 C1 4.62 1 9.24 1 14 C0.01 14 -0.98 14 -2 14 C-1.84660156 13.44828125 -1.69320312 12.8965625 -1.53515625 12.328125 C-0.95329729 9.79682617 -0.67564555 7.33558028 -0.4375 4.75 C-0.35371094 3.85796875 -0.26992187 2.9659375 -0.18359375 2.046875 C-0.12300781 1.37140625 -0.06242187 0.6959375 0 0 Z " fill="#3D3D38" transform="translate(117,57)"/>
<path d="M0 0 C1.32 0.33 2.64 0.66 4 1 C4 2.33333333 4 3.66666667 4 5 C1.03 5 -1.94 5 -5 5 C-5 4.67 -5 4.34 -5 4 C-3.35 4 -1.7 4 0 4 C0 2.68 0 1.36 0 0 Z " fill="#5D5F63" transform="translate(69,31)"/>
<path d="M0 0 C1.32 0.33 2.64 0.66 4 1 C3.67 2.32 3.34 3.64 3 5 C0.03 5 -2.94 5 -6 5 C-6 4.67 -6 4.34 -6 4 C-3.69 4 -1.38 4 1 4 C0.67 2.68 0.34 1.36 0 0 Z " fill="#877E7A" transform="translate(66,20)"/>
<path d="M0 0 C0.99 0.33 1.98 0.66 3 1 C3 2.65 3 4.3 3 6 C2.01 5.67 1.02 5.34 0 5 C0 4.34 0 3.68 0 3 C-0.66 3 -1.32 3 -2 3 C-2 2.34 -2 1.68 -2 1 C-1.34 0.67 -0.68 0.34 0 0 Z " fill="#131411" transform="translate(15,50)"/>
<path d="M0 0 C1.32 0 2.64 0 4 0 C4.125 2.875 4.125 2.875 4 6 C3.34 6.66 2.68 7.32 2 8 C2 7.34 2 6.68 2 6 C1.34 5.67 0.68 5.34 0 5 C0.66 4.01 1.32 3.02 2 2 C1.34 2 0.68 2 0 2 C0 1.34 0 0.68 0 0 Z " fill="#898880" transform="translate(79,31)"/>
<path d="M0 0 C1.98 0 3.96 0 6 0 C6 0.99 6 1.98 6 3 C3.69 3 1.38 3 -1 3 C-0.67 2.01 -0.34 1.02 0 0 Z " fill="#593B3D" transform="translate(70,22)"/>
<path d="M0 0 C2.64 0 5.28 0 8 0 C7.67 2.31 7.34 4.62 7 7 C6.34 6.34 5.68 5.68 5 5 C5 3.68 5 2.36 5 1 C3.35 1 1.7 1 0 1 C0 0.67 0 0.34 0 0 Z " fill="#B9BAA5" transform="translate(29,81)"/>
<path d="M0 0 C0.33 0.66 0.66 1.32 1 2 C1.66 2 2.32 2 3 2 C3 2.99 3 3.98 3 5 C2.34 5 1.68 5 1 5 C1 7.64 1 10.28 1 13 C0.67 13 0.34 13 0 13 C0 8.71 0 4.42 0 0 Z " fill="#8D8A7E" transform="translate(109,51)"/>
<path d="M0 0 C0.99 0 1.98 0 3 0 C3 2.31 3 4.62 3 7 C2.01 6.67 1.02 6.34 0 6 C0 4.02 0 2.04 0 0 Z " fill="#20221F" transform="translate(38,36)"/>
<path d="M0 0 C1.32 0.33 2.64 0.66 4 1 C3.67 2.65 3.34 4.3 3 6 C2.01 6 1.02 6 0 6 C0 4.02 0 2.04 0 0 Z " fill="#505449" transform="translate(26,30)"/>
<path d="M0 0 C0.99 0 1.98 0 3 0 C3 1.65 3 3.3 3 5 C1.68 5 0.36 5 -1 5 C-0.67 3.35 -0.34 1.7 0 0 Z " fill="#252220" transform="translate(78,15)"/>
<path d="M0 0 C0.99 0.33 1.98 0.66 3 1 C3 2.98 3 4.96 3 7 C2.01 7 1.02 7 0 7 C0 4.69 0 2.38 0 0 Z " fill="#100E0C" transform="translate(86,58)"/>
<path d="M0 0 C0.99 0 1.98 0 3 0 C3.33 1.98 3.66 3.96 4 6 C2.68 6 1.36 6 0 6 C0 4.02 0 2.04 0 0 Z " fill="#75766B" transform="translate(91,50)"/>
<path d="M0 0 C0.66 0 1.32 0 2 0 C2.33 2.64 2.66 5.28 3 8 C1.68 7.67 0.36 7.34 -1 7 C-0.67 4.69 -0.34 2.38 0 0 Z " fill="#2A2B27" transform="translate(13,53)"/>
<path d="M0 0 C2.64 0 5.28 0 8 0 C8 0.99 8 1.98 8 3 C5.36 2.67 2.72 2.34 0 2 C0 1.34 0 0.68 0 0 Z " fill="#DCDCD5" transform="translate(96,53)"/>
<path d="M0 0 C0.99 0.33 1.98 0.66 3 1 C3 3.97 3 6.94 3 10 C2.34 10 1.68 10 1 10 C0.67 6.7 0.34 3.4 0 0 Z " fill="#080805" transform="translate(85,40)"/>
<path d="M0 0 C0.99 0.33 1.98 0.66 3 1 C2.34 1 1.68 1 1 1 C1.20625 2.27875 1.4125 3.5575 1.625 4.875 C1.9765625 7.0546875 1.9765625 7.0546875 2 9 C1.34 9.66 0.68 10.32 0 11 C-1.28571429 3.57142857 -1.28571429 3.57142857 0 0 Z " fill="#B09C8B" transform="translate(93,17)"/>
<path d="M0 0 C0.99 0 1.98 0 3 0 C3 0.66 3 1.32 3 2 C3.66 2.33 4.32 2.66 5 3 C4.34 3 3.68 3 3 3 C3 3.66 3 4.32 3 5 C2.01 5 1.02 5 0 5 C0 3.35 0 1.7 0 0 Z " fill="#575754" transform="translate(97,98)"/>
<path d="M0 0 C0.33 1.32 0.66 2.64 1 4 C1.66 4 2.32 4 3 4 C3.33 5.32 3.66 6.64 4 8 C2.68 8 1.36 8 0 8 C0 5.36 0 2.72 0 0 Z " fill="#1B1B17" transform="translate(81,90)"/>
<path d="M0 0 C0.66 0 1.32 0 2 0 C2 3.3 2 6.6 2 10 C0.35835645 6.7167129 -0.52087355 4.54553576 -1 1 C-0.67 0.67 -0.34 0.34 0 0 Z " fill="#7D7E7D" transform="translate(93,66)"/>
<path d="M0 0 C2.97 0.495 2.97 0.495 6 1 C4.3545622 2.68762851 2.68711423 4.3540349 1 6 C0.67 6 0.34 6 0 6 C0 4.02 0 2.04 0 0 Z " fill="#3E3F3C" transform="translate(70,60)"/>
<path d="M0 0 C0.99 0 1.98 0 3 0 C3 1.65 3 3.3 3 5 C2.01 5.33 1.02 5.66 0 6 C0 4.02 0 2.04 0 0 Z " fill="#71A66F" transform="translate(19,56)"/>
<path d="M0 0 C1.65 0 3.3 0 5 0 C5 1.65 5 3.3 5 5 C4.01 5 3.02 5 2 5 C2 3.68 2 2.36 2 1 C1.34 0.67 0.68 0.34 0 0 Z " fill="#83AB92" transform="translate(30,44)"/>
<path d="M0 0 C2.475 0.99 2.475 0.99 5 2 C5 2.66 5 3.32 5 4 C3.35 4 1.7 4 0 4 C-0.33 3.01 -0.66 2.02 -1 1 C-0.67 0.67 -0.34 0.34 0 0 Z " fill="#928F88" transform="translate(68,43)"/>
<path d="M0 0 C1.65 0 3.3 0 5 0 C5 1.32 5 2.64 5 4 C3.35 3.67 1.7 3.34 0 3 C0 2.01 0 1.02 0 0 Z " fill="#157443" transform="translate(20,28)"/>
<path d="M0 0 C2.64 0.33 5.28 0.66 8 1 C8 1.66 8 2.32 8 3 C5.69 3 3.38 3 1 3 C0.67 2.01 0.34 1.02 0 0 Z " fill="#E1E0DA" transform="translate(94,18)"/>
<path d="M0 0 C0 1.98 0 3.96 0 6 C-0.66 6 -1.32 6 -2 6 C-2.66 5.34 -3.32 4.68 -4 4 C-4.99 3.34 -5.98 2.68 -7 2 C-1.125 0 -1.125 0 0 0 Z " fill="#292924" transform="translate(114,15)"/>
</svg>
